<?xml version="1.0" encoding="UTF-8"?>
<svg xmlns="http://www.w3.org/2000/svg" viewBox="0 0 20 20" style="shape-rendering:geometricPrecision; text-rendering:geometricPrecision; image-rendering:optimizeQuality;">
  <g fill="none" fill-rule="evenodd">
    <!-- 问号路径 - 更柔和的灰色 -->
    <path fill="#A3ADC4" d="M10,3 C7.5,3 5.5,5 5.5,7.5 C5.5,9 6.5,9.8 7.8,10.5 C8.5,10.9 9,11 9,11.5 L9,13 L11,13 L11,11.5 C11,10.5 10.5,10.2 9.5,9.5 C8.5,8.8 7.5,8 7.5,7.5 C7.5,5.5 9,4.5 10,4.5 C11,4.5 12.5,5.5 12.5,7.5 C12.5,8.5 12,9.2 11.2,9.8 L11.8,9.2 C12.8,8.4 13.5,7.2 13.5,6 C13.5,4.5 12,3 10,3 Z M9,15 C9,14.4 9.4,14 10,14 C10.6,14 11,14.4 11,15 C11,15.6 10.6,16 10,16 C9.4,16 9,15.6 9,15 Z"/>
  </g>
</svg>
