<svg xmlns="http://www.w3.org/2000/svg" viewBox="0 0 13.2919 12.768913" class="design-iconfont">
  <path d="M13.8952886,10.56445 C14.1142886,10.56445 14.2918886,10.74202 14.2918886,10.96105 L14.2917886,14.3723 C14.2917886,14.4445 14.2720886,14.5152 14.2347886,14.577 C14.1217886,14.7646 13.8779886,14.825 13.6903886,14.7119 L10.8610686,13.0064 C10.8057986,12.9731 10.7594886,12.9268 10.7261686,12.8715 C10.6130886,12.6839 10.6734886,12.4402 10.8610686,12.3271 L13.6904886,10.62139 C13.7522886,10.58414 13.8230886,10.56445 13.8952886,10.56445 Z M7.99998856,12 C8.18407856,12 8.33331856,12.1492 8.33331856,12.3333 L8.33331856,13 C8.33331856,13.1841 8.18407856,13.3333 7.99998856,13.3333 L1.33332156,13.3333 C1.14922656,13.3333 0.999988556,13.1841 0.999988556,13 L0.999988556,12.3333 C0.999988556,12.1492 1.14922656,12 1.33332156,12 L7.99998856,12 Z M12.6666886,7 C12.8507886,7 12.9999886,7.14924 12.9999886,7.33333 L12.9999886,8 C12.9999886,8.18409 12.8507886,8.33333 12.6666886,8.33333 L1.33332156,8.33333 C1.14922656,8.33333 0.999988556,8.18409 0.999988556,8 L0.999988556,7.33333 C0.999988556,7.14924 1.14922656,7 1.33332156,7 L12.6666886,7 Z M12.6666886,2 C12.8507886,2 12.9999886,2.149238 12.9999886,2.333333 L12.9999886,3 C12.9999886,3.18409 12.8507886,3.33333 12.6666886,3.33333 L1.33332156,3.33333 C1.14922656,3.33333 0.999988556,3.18409 0.999988556,3 L0.999988556,2.333333 C0.999988556,2.149238 1.14922656,2 1.33332156,2 L12.6666886,2 Z" fill="#4E5969" transform="matrix(-1 0 0 1 14.291888 -2)" fill-rule="evenodd"/>
</svg>
