<svg xmlns="http://www.w3.org/2000/svg" viewBox="0 0 11.3333 11.6667" class="design-iconfont">
  <path d="M6.00000325,2 C6.18409325,2 6.33333325,2.149238 6.33333325,2.333333 L6.33333325,3 L9.66666325,3 L9.66666325,2.333333 C9.66666325,2.149238 9.81590325,2 10.0000033,2 L10.6666633,2 C10.8507633,2 11.0000033,2.149238 11.0000033,2.333333 L11.0000033,3 L13.0000333,3 C13.3682333,3 13.6666333,3.31506 13.6666333,3.7037 L13.6666333,12.963 C13.6666333,13.3516 13.3682333,13.6667 13.0000333,13.6667 L3.00000025,13.6667 C2.63181025,13.6667 2.33333325,13.3516 2.33333325,12.963 L2.33333325,3.7037 C2.33333325,3.31506 2.63181025,3 3.00000025,3 L4.99966325,3 L5.00000325,2.333333 C5.00000325,2.149238 5.14924325,2 5.33333325,2 L6.00000325,2 Z M12.3333333,8 L3.66666325,8 L3.66666325,12.3333 L12.3333333,12.3333 L12.3333333,8 Z M4.99966325,4.33333 L3.66666325,4.33333 L3.66666325,6.66667 L12.3333333,6.66667 L12.3333333,4.33333 L11.0000033,4.33333 L11.0000033,5 C11.0000033,5.18409 10.8507633,5.33333 10.6666633,5.33333 L10.0000033,5.33333 C9.81590325,5.33333 9.66666325,5.18409 9.66666325,5 L9.66666325,4.33333 L6.33333325,4.33333 L6.33333325,5 C6.33333325,5.18409 6.18409325,5.33333 6.00000325,5.33333 L5.33333325,5.33333 C5.14924325,5.33333 5.00000325,5.18409 5.00000325,5 L4.99966325,4.33333 Z" fill="#4E5969" transform="translate(-2.333333 -2)" fill-rule="evenodd" opacity=".89999998"/>
</svg>
