<?xml version="1.0" encoding="UTF-8"?>
<!DOCTYPE svg PUBLIC "-//W3C//DTD SVG 1.1//EN" "http://www.w3.org/Graphics/SVG/1.1/DTD/svg11.dtd">
<svg xmlns="http://www.w3.org/2000/svg" version="1.1" width="2175px" height="511px" style="shape-rendering:geometricPrecision; text-rendering:geometricPrecision; image-rendering:optimizeQuality; fill-rule:evenodd; clip-rule:evenodd" xmlns:xlink="http://www.w3.org/1999/xlink">
<g><path style="opacity:0.988" fill="#00aaea" d="M 236.5,-0.5 C 248.833,-0.5 261.167,-0.5 273.5,-0.5C 341.287,5.97746 398.454,33.9775 445,83.5C 450.073,89.7283 454.907,96.0617 459.5,102.5C 459.167,102.5 458.833,102.5 458.5,102.5C 456.249,99.7052 453.582,97.3719 450.5,95.5C 445.804,91.4788 440.804,87.8122 435.5,84.5C 430.666,81.2484 425.666,78.2484 420.5,75.5C 411.618,71.2254 402.618,67.2254 393.5,63.5C 350.755,48.9773 308.089,48.9773 265.5,63.5C 256.736,66.716 248.403,70.716 240.5,75.5C 237.339,76.9131 234.339,78.5797 231.5,80.5C 223.016,79.507 214.349,79.1736 205.5,79.5C 200.167,79.5 194.833,79.5 189.5,79.5C 186.167,79.5 182.833,79.5 179.5,79.5C 176.833,79.5 174.167,79.5 171.5,79.5C 167.5,79.5 163.5,79.5 159.5,79.5C 156.167,79.5 152.833,79.5 149.5,79.5C 142.5,79.5 135.5,79.5 128.5,79.5C 124.5,79.5 120.5,79.5 116.5,79.5C 108.167,79.5 99.8333,79.5 91.5,79.5C 84.1667,79.5 76.8333,79.5 69.5,79.5C 104.177,42.44 146.51,17.94 196.5,6C 209.853,3.05162 223.187,0.884957 236.5,-0.5 Z"/></g>
<g><path style="opacity:1" fill="#014ca1" d="M 393.5,63.5 C 350.833,64.8333 308.167,64.8333 265.5,63.5C 308.089,48.9773 350.755,48.9773 393.5,63.5 Z"/></g>
<g><path style="opacity:1" fill="#0453a5" d="M 265.5,63.5 C 308.167,64.8333 350.833,64.8333 393.5,63.5C 402.618,67.2254 411.618,71.2254 420.5,75.5C 360.5,76.8333 300.5,76.8333 240.5,75.5C 248.403,70.716 256.736,66.716 265.5,63.5 Z"/></g>
<g><path style="opacity:1" fill="#035aaa" d="M 240.5,75.5 C 300.5,76.8333 360.5,76.8333 420.5,75.5C 425.666,78.2484 430.666,81.2484 435.5,84.5C 365.5,85.8333 295.5,85.8333 225.5,84.5C 227.5,83.1667 229.5,81.8333 231.5,80.5C 234.339,78.5797 237.339,76.9131 240.5,75.5 Z"/></g>
<g><path style="opacity:0.971" fill="#00469d" d="M 1211.5,77.5 C 1228.33,76.3383 1245.33,76.1716 1262.5,77C 1265.36,81.0326 1268.03,85.1993 1270.5,89.5C 1303.83,90.4999 1337.16,90.8332 1370.5,90.5C 1370.5,107.167 1370.5,123.833 1370.5,140.5C 1353.5,140.5 1336.5,140.5 1319.5,140.5C 1319.5,132.833 1319.5,125.167 1319.5,117.5C 1269.83,117.5 1220.17,117.5 1170.5,117.5C 1170.5,125.167 1170.5,132.833 1170.5,140.5C 1154.17,140.5 1137.83,140.5 1121.5,140.5C 1121.5,123.833 1121.5,107.167 1121.5,90.5C 1154.17,90.6666 1186.84,90.5 1219.5,90C 1216.93,85.6839 1214.27,81.5172 1211.5,77.5 Z"/></g>
<g><path style="opacity:0.954" fill="#00469d" d="M 1668.5,78.5 C 1687.17,78.5 1705.83,78.5 1724.5,78.5C 1724.5,87.5 1724.5,96.5 1724.5,105.5C 1705.83,105.5 1687.17,105.5 1668.5,105.5C 1668.5,96.5 1668.5,87.5 1668.5,78.5 Z"/></g>
<g><path style="opacity:0.975" fill="#00469d" d="M 2031.5,78.5 C 2049.18,78.1671 2066.85,78.5005 2084.5,79.5C 2078.5,87.1667 2072.5,94.8333 2066.5,102.5C 2076.17,103.833 2085.83,103.833 2095.5,102.5C 2098.37,96.5884 2101.37,90.755 2104.5,85C 2122.18,84.167 2139.84,84.3337 2157.5,85.5C 2154.27,91.2967 2151.6,97.2967 2149.5,103.5C 2154.5,103.5 2159.5,103.5 2164.5,103.5C 2164.5,112.167 2164.5,120.833 2164.5,129.5C 2124.5,129.333 2084.5,129.5 2044.5,130C 2040.5,135.333 2036.5,140.667 2032.5,146C 2078.5,146.5 2124.5,146.667 2170.5,146.5C 2170.5,155.5 2170.5,164.5 2170.5,173.5C 2160.49,173.334 2150.49,173.5 2140.5,174C 2150.98,183.318 2160.98,193.151 2170.5,203.5C 2152.84,204.666 2135.18,204.833 2117.5,204C 2108.17,194 2098.83,184 2089.5,174C 2063.17,173.333 2036.83,173.333 2010.5,174C 2002.5,184 1994.5,194 1986.5,204C 1969.49,204.833 1952.49,204.666 1935.5,203.5C 1942.98,193.523 1950.64,183.69 1958.5,174C 1949.84,173.5 1941.17,173.334 1932.5,173.5C 1932.5,164.5 1932.5,155.5 1932.5,146.5C 1948.17,146.667 1963.84,146.5 1979.5,146C 1983.62,140.924 1987.62,135.757 1991.5,130.5C 1974.51,129.501 1957.51,129.167 1940.5,129.5C 1940.5,120.833 1940.5,112.167 1940.5,103.5C 1945.84,103.666 1951.18,103.499 1956.5,103C 1953.37,97.245 1950.37,91.4116 1947.5,85.5C 1965.16,84.3337 1982.82,84.167 2000.5,85C 2003.63,90.755 2006.63,96.5884 2009.5,102.5C 2010.72,103.614 2012.06,103.781 2013.5,103C 2019.72,94.9555 2025.72,86.7888 2031.5,78.5 Z"/></g>
<g><path style="opacity:1" fill="#f7fbfe" d="M 69.5,79.5 C 76.8333,79.5 84.1667,79.5 91.5,79.5C 91.5,90.1667 91.5,100.833 91.5,111.5C 75.5,111.5 59.5,111.5 43.5,111.5C 50.7318,99.7244 59.3984,89.0577 69.5,79.5 Z"/></g>
<g><path style="opacity:1" fill="#eaf6fd" d="M 91.5,79.5 C 99.8333,79.5 108.167,79.5 116.5,79.5C 116.5,90.1667 116.5,100.833 116.5,111.5C 108.167,111.5 99.8333,111.5 91.5,111.5C 91.5,100.833 91.5,90.1667 91.5,79.5 Z"/></g>
<g><path style="opacity:1" fill="#def1fc" d="M 116.5,79.5 C 120.5,79.5 124.5,79.5 128.5,79.5C 128.5,90.1667 128.5,100.833 128.5,111.5C 124.5,111.5 120.5,111.5 116.5,111.5C 116.5,100.833 116.5,90.1667 116.5,79.5 Z"/></g>
<g><path style="opacity:1" fill="#d1ecfa" d="M 128.5,79.5 C 135.5,79.5 142.5,79.5 149.5,79.5C 149.5,90.1667 149.5,100.833 149.5,111.5C 142.5,111.5 135.5,111.5 128.5,111.5C 128.5,100.833 128.5,90.1667 128.5,79.5 Z"/></g>
<g><path style="opacity:1" fill="#c2e6f9" d="M 149.5,79.5 C 152.833,79.5 156.167,79.5 159.5,79.5C 159.5,90.1667 159.5,100.833 159.5,111.5C 156.167,111.5 152.833,111.5 149.5,111.5C 149.5,100.833 149.5,90.1667 149.5,79.5 Z"/></g>
<g><path style="opacity:1" fill="#b6e1f8" d="M 159.5,79.5 C 163.5,79.5 167.5,79.5 171.5,79.5C 171.5,90.1667 171.5,100.833 171.5,111.5C 167.5,111.5 163.5,111.5 159.5,111.5C 159.5,100.833 159.5,90.1667 159.5,79.5 Z"/></g>
<g><path style="opacity:1" fill="#aadcf7" d="M 171.5,79.5 C 174.167,79.5 176.833,79.5 179.5,79.5C 179.737,90.1982 179.404,100.865 178.5,111.5C 176.167,111.5 173.833,111.5 171.5,111.5C 171.5,100.833 171.5,90.1667 171.5,79.5 Z"/></g>
<g><path style="opacity:1" fill="#9bd7f6" d="M 179.5,79.5 C 182.833,79.5 186.167,79.5 189.5,79.5C 189.5,90.1667 189.5,100.833 189.5,111.5C 185.833,111.5 182.167,111.5 178.5,111.5C 179.404,100.865 179.737,90.1982 179.5,79.5 Z"/></g>
<g><path style="opacity:1" fill="#87d0f4" d="M 189.5,79.5 C 194.833,79.5 200.167,79.5 205.5,79.5C 205.5,86.5 205.5,93.5 205.5,100.5C 204.5,100.833 203.833,101.5 203.5,102.5C 201.167,104.167 199.167,106.167 197.5,108.5C 196.728,109.694 195.728,110.694 194.5,111.5C 192.833,111.5 191.167,111.5 189.5,111.5C 189.5,100.833 189.5,90.1667 189.5,79.5 Z"/></g>
<g><path style="opacity:1" fill="#68c6f1" d="M 205.5,79.5 C 214.349,79.1736 223.016,79.507 231.5,80.5C 229.5,81.8333 227.5,83.1667 225.5,84.5C 220.431,87.6954 215.765,91.3621 211.5,95.5C 209.5,97.1667 207.5,98.8333 205.5,100.5C 205.5,93.5 205.5,86.5 205.5,79.5 Z"/></g>
<g><path style="opacity:0.983" fill="#00469d" d="M 684.5,79.5 C 701.167,79.5 717.833,79.5 734.5,79.5C 734.5,84.1667 734.5,88.8333 734.5,93.5C 765.167,93.5 795.833,93.5 826.5,93.5C 826.667,145.168 826.5,196.834 826,248.5C 823.362,257.313 817.862,263.479 809.5,267C 784.502,267.5 759.502,267.667 734.5,267.5C 734.5,274.5 734.5,281.5 734.5,288.5C 717.833,288.5 701.167,288.5 684.5,288.5C 684.5,281.5 684.5,274.5 684.5,267.5C 653.833,267.5 623.167,267.5 592.5,267.5C 592.5,209.5 592.5,151.5 592.5,93.5C 623.167,93.5 653.833,93.5 684.5,93.5C 684.5,88.8333 684.5,84.1667 684.5,79.5 Z M 643.5,120.5 C 657.167,120.5 670.833,120.5 684.5,120.5C 684.5,134.5 684.5,148.5 684.5,162.5C 670.833,162.5 657.167,162.5 643.5,162.5C 643.5,148.5 643.5,134.5 643.5,120.5 Z M 734.5,120.5 C 748.167,120.5 761.833,120.5 775.5,120.5C 775.5,134.5 775.5,148.5 775.5,162.5C 761.833,162.5 748.167,162.5 734.5,162.5C 734.5,148.5 734.5,134.5 734.5,120.5 Z M 643.5,190.5 C 657.167,190.5 670.833,190.5 684.5,190.5C 684.5,207.5 684.5,224.5 684.5,241.5C 670.833,241.5 657.167,241.5 643.5,241.5C 643.5,224.5 643.5,207.5 643.5,190.5 Z M 734.5,190.5 C 748.167,190.5 761.833,190.5 775.5,190.5C 775.667,205.837 775.5,221.17 775,236.5C 773.363,238.81 771.196,240.31 768.5,241C 757.172,241.5 745.838,241.667 734.5,241.5C 734.5,224.5 734.5,207.5 734.5,190.5 Z"/></g>
<g><path style="opacity:0.963" fill="#00469d" d="M 1392.5,79.5 C 1407.17,79.5 1421.83,79.5 1436.5,79.5C 1440.36,95.2793 1444.7,110.946 1449.5,126.5C 1434.83,127.833 1420.17,127.833 1405.5,126.5C 1400.55,110.987 1396.22,95.3205 1392.5,79.5 Z"/></g>
<g><path style="opacity:0.989" fill="#00469d" d="M 1751.5,79.5 C 1803.5,79.5 1855.5,79.5 1907.5,79.5C 1907.5,88.1667 1907.5,96.8333 1907.5,105.5C 1891.17,105.5 1874.83,105.5 1858.5,105.5C 1858.5,123.167 1858.5,140.833 1858.5,158.5C 1874.83,158.5 1891.17,158.5 1907.5,158.5C 1907.5,167.167 1907.5,175.833 1907.5,184.5C 1891.17,184.5 1874.83,184.5 1858.5,184.5C 1858.5,210.5 1858.5,236.5 1858.5,262.5C 1874.5,262.5 1890.5,262.5 1906.5,262.5C 1906.5,271.167 1906.5,279.833 1906.5,288.5C 1858.5,288.667 1810.5,288.5 1762.5,288C 1757,286.5 1753.5,283 1752,277.5C 1751.5,230.168 1751.33,182.835 1751.5,135.5C 1765.83,135.5 1780.17,135.5 1794.5,135.5C 1794.33,177.168 1794.5,218.835 1795,260.5C 1795.75,261.126 1796.58,261.626 1797.5,262C 1802.49,262.499 1807.49,262.666 1812.5,262.5C 1812.5,210.167 1812.5,157.833 1812.5,105.5C 1792.17,105.5 1771.83,105.5 1751.5,105.5C 1751.5,96.8333 1751.5,88.1667 1751.5,79.5 Z"/></g>
<g><path style="opacity:0.966" fill="#00469d" d="M 1457.5,81.5 C 1516.83,81.5 1576.17,81.5 1635.5,81.5C 1635.5,89.1667 1635.5,96.8333 1635.5,104.5C 1590.83,104.5 1546.17,104.5 1501.5,104.5C 1501.67,158.834 1501.5,213.168 1501,267.5C 1498.46,279.373 1491.29,286.54 1479.5,289C 1472.17,289.5 1464.84,289.666 1457.5,289.5C 1457.5,220.167 1457.5,150.833 1457.5,81.5 Z"/></g>
<g><path style="opacity:0.985" fill="#00469d" d="M 854.5,83.5 C 936.833,83.5 1019.17,83.5 1101.5,83.5C 1101.5,92.1667 1101.5,100.833 1101.5,109.5C 1048.5,109.5 995.5,109.5 942.5,109.5C 940.944,120.777 938.944,131.944 936.5,143C 986.499,143.5 1036.5,143.667 1086.5,143.5C 1086.98,186.547 1086.48,229.547 1085,272.5C 1081.74,280.089 1076.24,285.256 1068.5,288C 1050.84,288.5 1033.17,288.667 1015.5,288.5C 1015.5,279.5 1015.5,270.5 1015.5,261.5C 1021.51,261.666 1027.51,261.499 1033.5,261C 1036,259.833 1037.83,258 1039,255.5C 1039.5,227.169 1039.67,198.835 1039.5,170.5C 1003.5,170.5 967.5,170.5 931.5,170.5C 925.158,209.554 918.491,248.554 911.5,287.5C 894.833,287.5 878.167,287.5 861.5,287.5C 871.5,228.167 881.5,168.833 891.5,109.5C 879.167,109.5 866.833,109.5 854.5,109.5C 854.5,100.833 854.5,92.1667 854.5,83.5 Z"/></g>
<g><path style="opacity:1" fill="#0060af" d="M 225.5,84.5 C 295.5,85.8333 365.5,85.8333 435.5,84.5C 440.804,87.8122 445.804,91.4788 450.5,95.5C 370.833,96.8333 291.167,96.8333 211.5,95.5C 215.765,91.3621 220.431,87.6954 225.5,84.5 Z"/></g>
<g><path style="opacity:1" fill="#0065b3" d="M 211.5,95.5 C 291.167,96.8333 370.833,96.8333 450.5,95.5C 453.582,97.3719 456.249,99.7052 458.5,102.5C 373.5,103.833 288.5,103.833 203.5,102.5C 203.833,101.5 204.5,100.833 205.5,100.5C 207.5,98.8333 209.5,97.1667 211.5,95.5 Z"/></g>
<g><path style="opacity:1" fill="#0069b6" d="M 203.5,102.5 C 288.5,103.833 373.5,103.833 458.5,102.5C 458.833,102.5 459.167,102.5 459.5,102.5C 460.974,103.436 461.974,104.77 462.5,106.5C 462.414,107.496 462.748,108.329 463.5,109C 374.666,109.832 285.999,109.666 197.5,108.5C 199.167,106.167 201.167,104.167 203.5,102.5 Z"/></g>
<g><path style="opacity:0.978" fill="#00469d" d="M 1525.5,108.5 C 1539.85,108.167 1554.18,108.501 1568.5,109.5C 1567.3,112.739 1565.96,115.906 1564.5,119C 1587.83,119.5 1611.16,119.667 1634.5,119.5C 1634.97,146.564 1634.47,173.564 1633,200.5C 1630.74,205.757 1626.91,209.257 1621.5,211C 1611.51,211.5 1601.51,211.666 1591.5,211.5C 1591.97,233.899 1591.47,256.233 1590,278.5C 1588.07,283.428 1584.57,286.594 1579.5,288C 1570.89,289.339 1562.23,289.839 1553.5,289.5C 1553.5,263.5 1553.5,237.5 1553.5,211.5C 1539.17,211.5 1524.83,211.5 1510.5,211.5C 1510.5,180.833 1510.5,150.167 1510.5,119.5C 1514.18,119.665 1517.85,119.499 1521.5,119C 1523.33,115.688 1524.66,112.188 1525.5,108.5 Z M 1548.5,142.5 C 1564.17,142.5 1579.83,142.5 1595.5,142.5C 1595.5,146.833 1595.5,151.167 1595.5,155.5C 1579.83,155.5 1564.17,155.5 1548.5,155.5C 1548.5,151.167 1548.5,146.833 1548.5,142.5 Z M 1548.5,176.5 C 1564.17,176.5 1579.83,176.5 1595.5,176.5C 1595.5,180.5 1595.5,184.5 1595.5,188.5C 1579.83,188.5 1564.17,188.5 1548.5,188.5C 1548.5,184.5 1548.5,180.5 1548.5,176.5 Z"/></g>
<g><path style="opacity:0.999" fill="#006dba" d="M 462.5,106.5 C 466.237,110.302 469.237,114.635 471.5,119.5C 424.505,120.833 377.171,121.5 329.5,121.5C 281.999,121.5 234.665,121.167 187.5,120.5C 189.592,117.319 191.925,114.319 194.5,111.5C 195.728,110.694 196.728,109.694 197.5,108.5C 285.999,109.666 374.666,109.832 463.5,109C 462.748,108.329 462.414,107.496 462.5,106.5 Z"/></g>
<g><path style="opacity:0.996" fill="#02aaea" d="M 43.5,111.5 C 59.5,111.5 75.5,111.5 91.5,111.5C 99.8333,111.5 108.167,111.5 116.5,111.5C 120.5,111.5 124.5,111.5 128.5,111.5C 135.5,111.5 142.5,111.5 149.5,111.5C 152.833,111.5 156.167,111.5 159.5,111.5C 163.5,111.5 167.5,111.5 171.5,111.5C 173.833,111.5 176.167,111.5 178.5,111.5C 182.167,111.5 185.833,111.5 189.5,111.5C 191.167,111.5 192.833,111.5 194.5,111.5C 191.925,114.319 189.592,117.319 187.5,120.5C 183.719,124.624 180.719,129.291 178.5,134.5C 177.5,135.833 176.5,137.167 175.5,138.5C 171.03,137.514 166.363,137.181 161.5,137.5C 158.5,137.5 155.5,137.5 152.5,137.5C 147.833,137.5 143.167,137.5 138.5,137.5C 136.167,137.5 133.833,137.5 131.5,137.5C 125.5,137.5 119.5,137.5 113.5,137.5C 110.833,137.5 108.167,137.5 105.5,137.5C 101.5,137.5 97.5,137.5 93.5,137.5C 86.1667,137.5 78.8333,137.5 71.5,137.5C 66.1667,137.5 60.8333,137.5 55.5,137.5C 46.1667,137.5 36.8333,137.5 27.5,137.5C 31.8445,128.128 37.1779,119.461 43.5,111.5 Z"/></g>
<g><path style="opacity:0.999" fill="#0073bf" d="M 471.5,119.5 C 475.174,123.507 477.841,128.173 479.5,133.5C 379.335,134.499 279.001,134.833 178.5,134.5C 180.719,129.291 183.719,124.624 187.5,120.5C 234.665,121.167 281.999,121.5 329.5,121.5C 377.171,121.5 424.505,120.833 471.5,119.5 Z"/></g>
<g><path style="opacity:0.975" fill="#00469d" d="M 1191.5,130.5 C 1209.5,130.333 1227.5,130.5 1245.5,131C 1241.83,138.667 1238.17,146.333 1234.5,154C 1279.5,154.5 1324.5,154.667 1369.5,154.5C 1369.5,163.833 1369.5,173.167 1369.5,182.5C 1319.83,182.167 1270.16,182.5 1220.5,183.5C 1203.39,218.044 1186.56,252.711 1170,287.5C 1152.23,288.825 1134.4,288.825 1116.5,287.5C 1133.17,252.833 1149.83,218.167 1166.5,183.5C 1151.85,182.501 1137.18,182.167 1122.5,182.5C 1122.5,173.167 1122.5,163.833 1122.5,154.5C 1141.84,154.667 1161.17,154.5 1180.5,154C 1184.85,146.461 1188.52,138.628 1191.5,130.5 Z"/></g>
<g><path style="opacity:1" fill="#0079c3" d="M 479.5,133.5 C 482.008,137.182 484.008,141.182 485.5,145.5C 381.5,146.833 277.5,146.833 173.5,145.5C 173.878,143.079 174.545,140.746 175.5,138.5C 176.5,137.167 177.5,135.833 178.5,134.5C 279.001,134.833 379.335,134.499 479.5,133.5 Z"/></g>
<g><path style="opacity:1" fill="#f8fcfe" d="M 27.5,137.5 C 36.8333,137.5 46.1667,137.5 55.5,137.5C 55.5,147.833 55.5,158.167 55.5,168.5C 41.8333,168.5 28.1667,168.5 14.5,168.5C 17.466,157.605 21.7993,147.271 27.5,137.5 Z"/></g>
<g><path style="opacity:1" fill="#e9f5fd" d="M 55.5,137.5 C 60.8333,137.5 66.1667,137.5 71.5,137.5C 71.5,147.833 71.5,158.167 71.5,168.5C 70.8333,168.5 70.5,168.833 70.5,169.5C 51.5,169.5 32.5,169.5 13.5,169.5C 13.5,168.833 13.8333,168.5 14.5,168.5C 28.1667,168.5 41.8333,168.5 55.5,168.5C 55.5,158.167 55.5,147.833 55.5,137.5 Z"/></g>
<g><path style="opacity:1" fill="#ddf0fc" d="M 71.5,137.5 C 78.8333,137.5 86.1667,137.5 93.5,137.5C 93.6723,147.857 93.339,158.19 92.5,168.5C 85.5,168.5 78.5,168.5 71.5,168.5C 71.5,158.167 71.5,147.833 71.5,137.5 Z"/></g>
<g><path style="opacity:1" fill="#cce9fa" d="M 93.5,137.5 C 97.5,137.5 101.5,137.5 105.5,137.5C 105.5,147.833 105.5,158.167 105.5,168.5C 101.167,168.5 96.8333,168.5 92.5,168.5C 93.339,158.19 93.6723,147.857 93.5,137.5 Z"/></g>
<g><path style="opacity:1" fill="#c1e5f8" d="M 105.5,137.5 C 108.167,137.5 110.833,137.5 113.5,137.5C 113.5,147.833 113.5,158.167 113.5,168.5C 110.833,168.5 108.167,168.5 105.5,168.5C 105.5,158.167 105.5,147.833 105.5,137.5 Z"/></g>
<g><path style="opacity:1" fill="#adddf7" d="M 113.5,137.5 C 119.5,137.5 125.5,137.5 131.5,137.5C 131.5,147.833 131.5,158.167 131.5,168.5C 125.5,168.5 119.5,168.5 113.5,168.5C 113.5,158.167 113.5,147.833 113.5,137.5 Z"/></g>
<g><path style="opacity:1" fill="#9dd7f5" d="M 131.5,137.5 C 133.833,137.5 136.167,137.5 138.5,137.5C 138.5,147.833 138.5,158.167 138.5,168.5C 136.265,168.205 134.265,168.539 132.5,169.5C 111.833,169.5 91.1667,169.5 70.5,169.5C 70.5,168.833 70.8333,168.5 71.5,168.5C 78.5,168.5 85.5,168.5 92.5,168.5C 96.8333,168.5 101.167,168.5 105.5,168.5C 108.167,168.5 110.833,168.5 113.5,168.5C 119.5,168.5 125.5,168.5 131.5,168.5C 131.5,158.167 131.5,147.833 131.5,137.5 Z"/></g>
<g><path style="opacity:1" fill="#86cff3" d="M 138.5,137.5 C 143.167,137.5 147.833,137.5 152.5,137.5C 152.5,147.833 152.5,158.167 152.5,168.5C 147.833,168.5 143.167,168.5 138.5,168.5C 138.5,158.167 138.5,147.833 138.5,137.5 Z"/></g>
<g><path style="opacity:1" fill="#6dc7f1" d="M 152.5,137.5 C 155.5,137.5 158.5,137.5 161.5,137.5C 161.5,147.833 161.5,158.167 161.5,168.5C 158.941,168.198 156.607,168.532 154.5,169.5C 147.167,169.5 139.833,169.5 132.5,169.5C 134.265,168.539 136.265,168.205 138.5,168.5C 143.167,168.5 147.833,168.5 152.5,168.5C 152.5,158.167 152.5,147.833 152.5,137.5 Z"/></g>
<g><path style="opacity:1" fill="#55c1ef" d="M 161.5,137.5 C 166.363,137.181 171.03,137.514 175.5,138.5C 174.545,140.746 173.878,143.079 173.5,145.5C 170.895,151.085 169.562,157.085 169.5,163.5C 169.5,165.5 169.5,167.5 169.5,169.5C 164.5,169.5 159.5,169.5 154.5,169.5C 156.607,168.532 158.941,168.198 161.5,168.5C 161.5,158.167 161.5,147.833 161.5,137.5 Z"/></g>
<g><path style="opacity:0.962" fill="#00469d" d="M 1392.5,141.5 C 1407.17,141.5 1421.83,141.5 1436.5,141.5C 1440.83,157.5 1445.17,173.5 1449.5,189.5C 1434.82,189.833 1420.15,189.499 1405.5,188.5C 1400.96,172.878 1396.63,157.211 1392.5,141.5 Z"/></g>
<g><path style="opacity:0.981" fill="#00469d" d="M 1664.5,142.5 C 1684.83,142.5 1705.17,142.5 1725.5,142.5C 1725.33,181.835 1725.5,221.168 1726,260.5C 1731.74,261.475 1737.57,261.808 1743.5,261.5C 1743.5,270.5 1743.5,279.5 1743.5,288.5C 1725.5,288.667 1707.5,288.5 1689.5,288C 1683.14,286.298 1679.64,282.132 1679,275.5C 1678.5,239.835 1678.33,204.168 1678.5,168.5C 1673.83,168.5 1669.17,168.5 1664.5,168.5C 1664.5,159.833 1664.5,151.167 1664.5,142.5 Z"/></g>
<g><path style="opacity:0.999" fill="#0080c8" d="M 173.5,145.5 C 277.5,146.833 381.5,146.833 485.5,145.5C 488.678,151.196 491.344,157.196 493.5,163.5C 385.5,163.5 277.5,163.5 169.5,163.5C 169.562,157.085 170.895,151.085 173.5,145.5 Z"/></g>
<g><path style="opacity:0.982" fill="#0085cd" d="M 169.5,163.5 C 277.5,163.5 385.5,163.5 493.5,163.5C 495.697,168.756 497.697,174.089 499.5,179.5C 446.167,179.5 392.833,179.5 339.5,179.5C 340.051,176.193 340.384,172.86 340.5,169.5C 283.833,169.5 227.167,169.5 170.5,169.5C 170.167,169.5 169.833,169.5 169.5,169.5C 169.5,167.5 169.5,165.5 169.5,163.5 Z"/></g>
<g><path style="opacity:0.996" fill="#00a8e8" d="M 13.5,169.5 C 32.5,169.5 51.5,169.5 70.5,169.5C 91.1667,169.5 111.833,169.5 132.5,169.5C 139.833,169.5 147.167,169.5 154.5,169.5C 159.5,169.5 164.5,169.5 169.5,169.5C 169.833,169.5 170.167,169.5 170.5,169.5C 170.065,177.495 169.731,185.495 169.5,193.5C 115.167,193.5 60.8333,193.5 6.5,193.5C 8.52264,185.409 10.856,177.409 13.5,169.5 Z"/></g>
<g><path style="opacity:0.992" fill="#008cd2" d="M 339.5,179.5 C 392.833,179.5 446.167,179.5 499.5,179.5C 501.166,186.166 502.833,192.833 504.5,199.5C 449.5,199.5 394.5,199.5 339.5,199.5C 339.5,192.833 339.5,186.167 339.5,179.5 Z"/></g>
<g><path style="opacity:0.974" fill="#00469d" d="M 1234.5,190.5 C 1251.17,190.333 1267.84,190.5 1284.5,191C 1275.17,213.333 1265.83,235.667 1256.5,258C 1276.9,258.964 1297.23,258.631 1317.5,257C 1319.81,255.363 1321.31,253.196 1322,250.5C 1322.5,239.505 1322.67,228.505 1322.5,217.5C 1335.83,217.5 1349.17,217.5 1362.5,217.5C 1362.67,234.17 1362.5,250.837 1362,267.5C 1358.94,279.224 1351.44,286.058 1339.5,288C 1293.17,288.667 1246.83,288.667 1200.5,288C 1193.76,284.678 1191.93,279.511 1195,272.5C 1207.91,245.018 1221.07,217.685 1234.5,190.5 Z"/></g>
<g><path style="opacity:0.999" fill="#fafdfe" d="M 6.5,194.5 C 18.1667,194.5 29.8333,194.5 41.5,194.5C 41.5,204.833 41.5,215.167 41.5,225.5C 27.9895,225.829 14.6562,225.496 1.5,224.5C 2.14107,214.299 3.80773,204.299 6.5,194.5 Z"/></g>
<g><path style="opacity:1" fill="#ecf6fd" d="M 41.5,194.5 C 47.8333,194.5 54.1667,194.5 60.5,194.5C 60.5,204.833 60.5,215.167 60.5,225.5C 54.1667,225.5 47.8333,225.5 41.5,225.5C 41.5,215.167 41.5,204.833 41.5,194.5 Z"/></g>
<g><path style="opacity:1" fill="#dff0fb" d="M 60.5,194.5 C 65.8333,194.5 71.1667,194.5 76.5,194.5C 76.5,204.833 76.5,215.167 76.5,225.5C 71.1667,225.5 65.8333,225.5 60.5,225.5C 60.5,215.167 60.5,204.833 60.5,194.5 Z"/></g>
<g><path style="opacity:1" fill="#d1eafa" d="M 76.5,194.5 C 81.8333,194.5 87.1667,194.5 92.5,194.5C 93.0613,205.021 92.3946,215.355 90.5,225.5C 85.8333,225.5 81.1667,225.5 76.5,225.5C 76.5,215.167 76.5,204.833 76.5,194.5 Z"/></g>
<g><path style="opacity:1" fill="#bee2f7" d="M 92.5,194.5 C 98.1667,194.5 103.833,194.5 109.5,194.5C 108.629,204.806 108.296,215.14 108.5,225.5C 106.5,225.5 104.5,225.5 102.5,225.5C 98.5,225.5 94.5,225.5 90.5,225.5C 92.3946,215.355 93.0613,205.021 92.5,194.5 Z"/></g>
<g><path style="opacity:1" fill="#a2d6f4" d="M 118.5,194.5 C 120.833,194.5 123.167,194.5 125.5,194.5C 125.328,204.857 125.661,215.19 126.5,225.5C 123.833,225.5 121.167,225.5 118.5,225.5C 118.5,215.167 118.5,204.833 118.5,194.5 Z"/></g>
<g><path style="opacity:1" fill="#92d1f3" d="M 125.5,194.5 C 129.5,194.5 133.5,194.5 137.5,194.5C 137.638,204.854 137.305,215.188 136.5,225.5C 133.167,225.5 129.833,225.5 126.5,225.5C 125.661,215.19 125.328,204.857 125.5,194.5 Z"/></g>
<g><path style="opacity:1" fill="#82cbf1" d="M 137.5,194.5 C 139.5,194.5 141.5,194.5 143.5,194.5C 143.5,204.833 143.5,215.167 143.5,225.5C 141.167,225.5 138.833,225.5 136.5,225.5C 137.305,215.188 137.638,204.854 137.5,194.5 Z"/></g>
<g><path style="opacity:1" fill="#6dc4ef" d="M 143.5,194.5 C 147.167,194.5 150.833,194.5 154.5,194.5C 154.5,204.833 154.5,215.167 154.5,225.5C 150.833,225.5 147.167,225.5 143.5,225.5C 143.5,215.167 143.5,204.833 143.5,194.5 Z"/></g>
<g><path style="opacity:1" fill="#58bfee" d="M 6.5,194.5 C 6.5,194.167 6.5,193.833 6.5,193.5C 60.8333,193.5 115.167,193.5 169.5,193.5C 169.5,204.5 169.5,215.5 169.5,226.5C 147.167,226.5 124.833,226.5 102.5,226.5C 102.5,226.167 102.5,225.833 102.5,225.5C 104.5,225.5 106.5,225.5 108.5,225.5C 111.833,225.5 115.167,225.5 118.5,225.5C 121.167,225.5 123.833,225.5 126.5,225.5C 129.833,225.5 133.167,225.5 136.5,225.5C 138.833,225.5 141.167,225.5 143.5,225.5C 147.167,225.5 150.833,225.5 154.5,225.5C 154.5,215.167 154.5,204.833 154.5,194.5C 150.833,194.5 147.167,194.5 143.5,194.5C 141.5,194.5 139.5,194.5 137.5,194.5C 133.5,194.5 129.5,194.5 125.5,194.5C 123.167,194.5 120.833,194.5 118.5,194.5C 115.5,194.5 112.5,194.5 109.5,194.5C 103.833,194.5 98.1667,194.5 92.5,194.5C 87.1667,194.5 81.8333,194.5 76.5,194.5C 71.1667,194.5 65.8333,194.5 60.5,194.5C 54.1667,194.5 47.8333,194.5 41.5,194.5C 29.8333,194.5 18.1667,194.5 6.5,194.5 Z"/></g>
<g><path style="opacity:1" fill="#addbf5" d="M 109.5,194.5 C 112.5,194.5 115.5,194.5 118.5,194.5C 118.5,204.833 118.5,215.167 118.5,225.5C 115.167,225.5 111.833,225.5 108.5,225.5C 108.296,215.14 108.629,204.806 109.5,194.5 Z"/></g>
<g><path style="opacity:0.993" fill="#0092d7" d="M 339.5,199.5 C 394.5,199.5 449.5,199.5 504.5,199.5C 505.943,207.156 507.276,214.822 508.5,222.5C 452.167,222.5 395.833,222.5 339.5,222.5C 339.5,214.833 339.5,207.167 339.5,199.5 Z"/></g>
<g><path style="opacity:0.967" fill="#00469d" d="M 1407.5,200.5 C 1422.17,200.5 1436.83,200.5 1451.5,200.5C 1447.26,229.514 1442.93,258.514 1438.5,287.5C 1423.83,287.5 1409.17,287.5 1394.5,287.5C 1398.72,258.487 1403.06,229.487 1407.5,200.5 Z"/></g>
<g><path style="opacity:0.977" fill="#00469d" d="M 1938.5,210.5 C 2013.83,210.5 2089.17,210.5 2164.5,210.5C 2164.67,230.169 2164.5,249.836 2164,269.5C 2160.34,279.163 2153.5,285.33 2143.5,288C 2120.17,288.5 2096.84,288.667 2073.5,288.5C 2073.5,282.5 2073.5,276.5 2073.5,270.5C 2086.93,270.963 2100.27,270.463 2113.5,269C 2114,268.5 2114.5,268 2115,267.5C 2115.5,257.506 2115.67,247.506 2115.5,237.5C 2084.49,237.167 2053.49,237.5 2022.5,238.5C 2012.42,255.002 2002.08,271.336 1991.5,287.5C 1973.83,288.833 1956.17,288.833 1938.5,287.5C 1948.71,270.916 1959.04,254.416 1969.5,238C 1959.17,237.5 1948.84,237.334 1938.5,237.5C 1938.5,228.5 1938.5,219.5 1938.5,210.5 Z"/></g>
<g><path style="opacity:0.967" fill="#00469d" d="M 1516.5,217.5 C 1526.83,217.5 1537.17,217.5 1547.5,217.5C 1545.36,240.528 1543.03,263.528 1540.5,286.5C 1529.83,286.5 1519.17,286.5 1508.5,286.5C 1511.02,263.441 1513.69,240.441 1516.5,217.5 Z"/></g>
<g><path style="opacity:0.967" fill="#00469d" d="M 1596.5,217.5 C 1607.17,217.5 1617.83,217.5 1628.5,217.5C 1630.21,240.442 1632.54,263.275 1635.5,286C 1624.84,286.5 1614.17,286.667 1603.5,286.5C 1601.1,263.511 1598.77,240.511 1596.5,217.5 Z"/></g>
<g><path style="opacity:1" fill="#87cdf2" d="M 1.5,224.5 C 14.6562,225.496 27.9895,225.829 41.5,225.5C 47.8333,225.5 54.1667,225.5 60.5,225.5C 65.8333,225.5 71.1667,225.5 76.5,225.5C 81.1667,225.5 85.8333,225.5 90.5,225.5C 94.5,225.5 98.5,225.5 102.5,225.5C 102.5,225.833 102.5,226.167 102.5,226.5C 68.5,226.5 34.5,226.5 0.5,226.5C 0.32842,225.508 0.661754,224.842 1.5,224.5 Z"/></g>
<g><path style="opacity:0.993" fill="#0099dc" d="M 339.5,222.5 C 395.833,222.5 452.167,222.5 508.5,222.5C 509.719,233.797 510.386,245.13 510.5,256.5C 453.5,256.5 396.5,256.5 339.5,256.5C 339.5,245.167 339.5,233.833 339.5,222.5 Z"/></g>
<g><path style="opacity:0.998" fill="#00a3e5" d="M 0.5,226.5 C 34.5,226.5 68.5,226.5 102.5,226.5C 124.833,226.5 147.167,226.5 169.5,226.5C 169.5,234.5 169.5,242.5 169.5,250.5C 112.833,250.5 56.1667,250.5 -0.5,250.5C -0.5,245.167 -0.5,239.833 -0.5,234.5C 0.473067,232.052 0.8064,229.385 0.5,226.5 Z"/></g>
<g><path style="opacity:1" fill="#fafdfe" d="M -0.5,251.5 C 13.1667,251.5 26.8333,251.5 40.5,251.5C 41.0613,262.021 40.3946,272.355 38.5,282.5C 25.5846,283.117 12.918,282.45 0.5,280.5C 0.767809,278.901 0.434475,277.568 -0.5,276.5C -0.5,268.167 -0.5,259.833 -0.5,251.5 Z"/></g>
<g><path style="opacity:1" fill="#eaf4fc" d="M 40.5,251.5 C 49.5,251.5 58.5,251.5 67.5,251.5C 67.6006,261.852 67.2673,272.185 66.5,282.5C 57.1667,282.5 47.8333,282.5 38.5,282.5C 40.3946,272.355 41.0613,262.021 40.5,251.5 Z"/></g>
<g><path style="opacity:1" fill="#d9ecfa" d="M 67.5,251.5 C 72.1667,251.5 76.8333,251.5 81.5,251.5C 81.7379,262.007 81.0712,272.341 79.5,282.5C 75.1667,282.5 70.8333,282.5 66.5,282.5C 67.2673,272.185 67.6006,261.852 67.5,251.5 Z"/></g>
<g><path style="opacity:1" fill="#cde6f8" d="M 81.5,251.5 C 85.5,251.5 89.5,251.5 93.5,251.5C 93.2082,261.835 92.8749,272.168 92.5,282.5C 88.1667,282.5 83.8333,282.5 79.5,282.5C 81.0712,272.341 81.7379,262.007 81.5,251.5 Z"/></g>
<g><path style="opacity:1" fill="#bddff5" d="M 93.5,251.5 C 98.5,251.5 103.5,251.5 108.5,251.5C 107.922,261.824 107.588,272.157 107.5,282.5C 105.265,282.205 103.265,282.539 101.5,283.5C 67.8333,283.5 34.1667,283.5 0.5,283.5C 0.5,282.5 0.5,281.5 0.5,280.5C 12.918,282.45 25.5846,283.117 38.5,282.5C 47.8333,282.5 57.1667,282.5 66.5,282.5C 70.8333,282.5 75.1667,282.5 79.5,282.5C 83.8333,282.5 88.1667,282.5 92.5,282.5C 92.8749,272.168 93.2082,261.835 93.5,251.5 Z"/></g>
<g><path style="opacity:1" fill="#94cdf0" d="M 125.5,251.5 C 127.833,251.5 130.167,251.5 132.5,251.5C 132.667,261.751 132.667,272.085 132.5,282.5C 129.833,282.5 127.167,282.5 124.5,282.5C 125.226,272.183 125.56,261.85 125.5,251.5 Z"/></g>
<g><path style="opacity:1" fill="#4eb6e8" d="M -0.5,251.5 C -0.5,251.167 -0.5,250.833 -0.5,250.5C 56.1667,250.5 112.833,250.5 169.5,250.5C 169.5,261.5 169.5,272.5 169.5,283.5C 158.167,283.5 146.833,283.5 135.5,283.5C 137.607,282.532 139.941,282.198 142.5,282.5C 145.167,282.5 147.833,282.5 150.5,282.5C 150.498,280.169 151.331,278.169 153,276.5C 153.5,268.173 153.666,259.84 153.5,251.5C 150.167,251.5 146.833,251.5 143.5,251.5C 139.833,251.5 136.167,251.5 132.5,251.5C 130.167,251.5 127.833,251.5 125.5,251.5C 119.833,251.5 114.167,251.5 108.5,251.5C 103.5,251.5 98.5,251.5 93.5,251.5C 89.5,251.5 85.5,251.5 81.5,251.5C 76.8333,251.5 72.1667,251.5 67.5,251.5C 58.5,251.5 49.5,251.5 40.5,251.5C 26.8333,251.5 13.1667,251.5 -0.5,251.5 Z"/></g>
<g><path style="opacity:1" fill="#a6d5f2" d="M 108.5,251.5 C 114.167,251.5 119.833,251.5 125.5,251.5C 125.56,261.85 125.226,272.183 124.5,282.5C 118.833,282.5 113.167,282.5 107.5,282.5C 107.588,272.157 107.922,261.824 108.5,251.5 Z"/></g>
<g><path style="opacity:1" fill="#84c6ee" d="M 132.5,251.5 C 136.167,251.5 139.833,251.5 143.5,251.5C 142.573,261.794 142.24,272.128 142.5,282.5C 139.941,282.198 137.607,282.532 135.5,283.5C 125.5,283.5 115.5,283.5 105.5,283.5C 104.167,283.5 102.833,283.5 101.5,283.5C 103.265,282.539 105.265,282.205 107.5,282.5C 113.167,282.5 118.833,282.5 124.5,282.5C 127.167,282.5 129.833,282.5 132.5,282.5C 132.667,272.085 132.667,261.751 132.5,251.5 Z"/></g>
<g><path style="opacity:1" fill="#72c0ec" d="M 143.5,251.5 C 146.833,251.5 150.167,251.5 153.5,251.5C 153.666,259.84 153.5,268.173 153,276.5C 151.331,278.169 150.498,280.169 150.5,282.5C 147.833,282.5 145.167,282.5 142.5,282.5C 142.24,272.128 142.573,261.794 143.5,251.5 Z"/></g>
<g><path style="opacity:0.995" fill="#009fe2" d="M 339.5,256.5 C 396.5,256.5 453.5,256.5 510.5,256.5C 510.068,269.217 509.068,281.884 507.5,294.5C 451.5,294.5 395.5,294.5 339.5,294.5C 339.5,281.833 339.5,269.167 339.5,256.5 Z"/></g>
<g><path style="opacity:0.99" fill="#009ee1" d="M 0.5,283.5 C 34.1667,283.5 67.8333,283.5 101.5,283.5C 102.833,283.5 104.167,283.5 105.5,283.5C 75.7888,291.678 46.1222,300.011 16.5,308.5C 12.5,308.5 8.5,308.5 4.5,308.5C 3.0566,300.173 1.72327,291.84 0.5,283.5 Z"/></g>
<g><path style="opacity:0.999" fill="#0099dc" d="M 105.5,283.5 C 115.5,283.5 125.5,283.5 135.5,283.5C 146.833,283.5 158.167,283.5 169.5,283.5C 169.5,291.833 169.5,300.167 169.5,308.5C 159.167,308.5 148.833,308.5 138.5,308.5C 120.833,308.5 103.167,308.5 85.5,308.5C 62.5,308.5 39.5,308.5 16.5,308.5C 46.1222,300.011 75.7888,291.678 105.5,283.5 Z"/></g>
<g><path style="opacity:0.994" fill="#00a4e5" d="M 339.5,294.5 C 395.5,294.5 451.5,294.5 507.5,294.5C 505.181,308.434 501.847,322.101 497.5,335.5C 444.833,335.5 392.167,335.5 339.5,335.5C 339.5,321.833 339.5,308.167 339.5,294.5 Z"/></g>
<g><path style="opacity:1" fill="#f9fcfe" d="M 5.5,309.5 C 17.8333,309.5 30.1667,309.5 42.5,309.5C 42.5,319.833 42.5,330.167 42.5,340.5C 32.8333,340.5 23.1667,340.5 13.5,340.5C 10.0136,330.375 7.34692,320.041 5.5,309.5 Z"/></g>
<g><path style="opacity:1" fill="#ecf4fb" d="M 42.5,309.5 C 49.1667,309.5 55.8333,309.5 62.5,309.5C 62.5,319.833 62.5,330.167 62.5,340.5C 55.8333,340.5 49.1667,340.5 42.5,340.5C 42.5,330.167 42.5,319.833 42.5,309.5 Z"/></g>
<g><path style="opacity:1" fill="#ddecf9" d="M 62.5,309.5 C 69.5,309.5 76.5,309.5 83.5,309.5C 82.8673,319.821 82.534,330.155 82.5,340.5C 75.8333,340.5 69.1667,340.5 62.5,340.5C 62.5,330.167 62.5,319.833 62.5,309.5 Z"/></g>
<g><path style="opacity:1" fill="#cce3f5" d="M 4.5,308.5 C 8.5,308.5 12.5,308.5 16.5,308.5C 39.5,308.5 62.5,308.5 85.5,308.5C 88.2869,309.477 91.2869,309.81 94.5,309.5C 95.1249,320.138 94.1249,330.472 91.5,340.5C 88.5,340.5 85.5,340.5 82.5,340.5C 82.534,330.155 82.8673,319.821 83.5,309.5C 76.5,309.5 69.5,309.5 62.5,309.5C 55.8333,309.5 49.1667,309.5 42.5,309.5C 30.1667,309.5 17.8333,309.5 5.5,309.5C 4.83333,309.5 4.5,309.167 4.5,308.5 Z"/></g>
<g><path style="opacity:1" fill="#b4d6f1" d="M 104.5,309.5 C 108.167,309.5 111.833,309.5 115.5,309.5C 115.291,310.922 114.791,312.255 114,313.5C 113.5,322.494 113.334,331.494 113.5,340.5C 110.167,340.5 106.833,340.5 103.5,340.5C 103.875,330.168 104.208,319.835 104.5,309.5 Z"/></g>
<g><path style="opacity:1" fill="#a6cfee" d="M 115.5,309.5 C 118.5,309.5 121.5,309.5 124.5,309.5C 124.335,312.518 124.502,315.518 125,318.5C 125.654,317.304 126.154,317.304 126.5,318.5C 125.063,325.745 124.396,333.079 124.5,340.5C 120.833,340.5 117.167,340.5 113.5,340.5C 113.334,331.494 113.5,322.494 114,313.5C 114.791,312.255 115.291,310.922 115.5,309.5 Z"/></g>
<g><path style="opacity:1" fill="#97c7ec" d="M 124.5,309.5 C 127.5,309.5 130.5,309.5 133.5,309.5C 132.944,319.845 132.277,330.178 131.5,340.5C 129.167,340.5 126.833,340.5 124.5,340.5C 124.396,333.079 125.063,325.745 126.5,318.5C 126.154,317.304 125.654,317.304 125,318.5C 124.502,315.518 124.335,312.518 124.5,309.5 Z"/></g>
<g><path style="opacity:1" fill="#88c0e9" d="M 85.5,308.5 C 103.167,308.5 120.833,308.5 138.5,308.5C 138.5,309.167 138.833,309.5 139.5,309.5C 139.2,319.928 138.866,330.261 138.5,340.5C 136.167,340.5 133.833,340.5 131.5,340.5C 132.277,330.178 132.944,319.845 133.5,309.5C 130.5,309.5 127.5,309.5 124.5,309.5C 121.5,309.5 118.5,309.5 115.5,309.5C 111.833,309.5 108.167,309.5 104.5,309.5C 101.167,309.5 97.8333,309.5 94.5,309.5C 91.2869,309.81 88.2869,309.477 85.5,308.5 Z"/></g>
<g><path style="opacity:1" fill="#c0dcf3" d="M 94.5,309.5 C 97.8333,309.5 101.167,309.5 104.5,309.5C 104.208,319.835 103.875,330.168 103.5,340.5C 99.5,340.5 95.5,340.5 91.5,340.5C 94.1249,330.472 95.1249,320.138 94.5,309.5 Z"/></g>
<g><path style="opacity:1" fill="#79b9e7" d="M 139.5,309.5 C 142.5,309.5 145.5,309.5 148.5,309.5C 147.244,315.997 147.244,322.497 148.5,329C 148.185,333.117 147.185,336.951 145.5,340.5C 143.167,340.5 140.833,340.5 138.5,340.5C 138.866,330.261 139.2,319.928 139.5,309.5 Z"/></g>
<g><path style="opacity:1" fill="#5eafe3" d="M 148.5,309.5 C 155.167,309.5 161.833,309.5 168.5,309.5C 168.5,315.167 168.5,320.833 168.5,326.5C 165.123,326.959 161.789,327.626 158.5,328.5C 158.761,332.342 158.094,336.009 156.5,339.5C 152.893,340.489 149.226,340.823 145.5,340.5C 147.185,336.951 148.185,333.117 148.5,329C 147.244,322.497 147.244,315.997 148.5,309.5 Z"/></g>
<g><path style="opacity:1" fill="#58ace1" d="M 138.5,308.5 C 148.833,308.5 159.167,308.5 169.5,308.5C 169.5,319.167 169.5,329.833 169.5,340.5C 147.34,341.497 125.006,341.831 102.5,341.5C 73.1667,341.5 43.8333,341.5 14.5,341.5C 13.8333,341.5 13.5,341.167 13.5,340.5C 23.1667,340.5 32.8333,340.5 42.5,340.5C 49.1667,340.5 55.8333,340.5 62.5,340.5C 69.1667,340.5 75.8333,340.5 82.5,340.5C 85.5,340.5 88.5,340.5 91.5,340.5C 95.5,340.5 99.5,340.5 103.5,340.5C 106.833,340.5 110.167,340.5 113.5,340.5C 117.167,340.5 120.833,340.5 124.5,340.5C 126.833,340.5 129.167,340.5 131.5,340.5C 133.833,340.5 136.167,340.5 138.5,340.5C 140.833,340.5 143.167,340.5 145.5,340.5C 149.226,340.823 152.893,340.489 156.5,339.5C 158.094,336.009 158.761,332.342 158.5,328.5C 161.789,327.626 165.123,326.959 168.5,326.5C 168.5,320.833 168.5,315.167 168.5,309.5C 161.833,309.5 155.167,309.5 148.5,309.5C 145.5,309.5 142.5,309.5 139.5,309.5C 138.833,309.5 138.5,309.167 138.5,308.5 Z"/></g>
<g><path style="opacity:0.996" fill="#00a7e8" d="M 339.5,335.5 C 392.167,335.5 444.833,335.5 497.5,335.5C 494.288,345.578 490.288,355.244 485.5,364.5C 435.833,364.5 386.167,364.5 336.5,364.5C 338.536,357.315 339.536,349.982 339.5,342.5C 339.5,341.833 339.5,341.167 339.5,340.5C 339.5,338.833 339.5,337.167 339.5,335.5 Z"/></g>
<g><path style="opacity:0.931" fill="#00469d" d="M 615.5,337.5 C 623.628,337.566 631.628,338.566 639.5,340.5C 639.757,345.419 638.09,349.419 634.5,352.5C 628.628,350.6 622.628,350.1 616.5,351C 614.398,352.733 614.065,354.733 615.5,357C 621.216,358.846 626.883,360.846 632.5,363C 642.153,368.422 644.653,376.256 640,386.5C 636.731,389.883 632.897,392.383 628.5,394C 617.423,396.189 606.423,395.856 595.5,393C 594.572,392.612 593.905,391.945 593.5,391C 594.642,387.24 595.975,383.573 597.5,380C 602.485,381.363 607.652,382.196 613,382.5C 617.659,383.404 621.159,381.904 623.5,378C 622.833,376 621.5,374.667 619.5,374C 610.578,372.813 603.078,368.98 597,362.5C 593.943,354.339 595.777,347.505 602.5,342C 606.715,339.763 611.048,338.263 615.5,337.5 Z"/></g>
<g><path style="opacity:0.945" fill="#00469d" d="M 1181.5,337.5 C 1209.06,336.937 1220.56,350.271 1216,377.5C 1210.67,390.636 1200.83,396.636 1186.5,395.5C 1167.06,395.893 1156.73,386.393 1155.5,367C 1156.29,350.053 1164.96,340.219 1181.5,337.5 Z M 1184.5,350.5 C 1192.13,350.299 1196.63,353.966 1198,361.5C 1199.21,367.886 1198.21,373.886 1195,379.5C 1181.92,386.033 1175.09,381.867 1174.5,367C 1174.22,359.031 1177.55,353.531 1184.5,350.5 Z"/></g>
<g><path style="opacity:0.937" fill="#00469d" d="M 1324.5,337.5 C 1332.21,337.244 1339.71,338.244 1347,340.5C 1348,345.496 1346.5,349.496 1342.5,352.5C 1320.23,347.27 1312.06,355.604 1318,377.5C 1322.31,381.658 1327.47,383.324 1333.5,382.5C 1333.5,376.167 1333.5,369.833 1333.5,363.5C 1339.5,363.5 1345.5,363.5 1351.5,363.5C 1351.5,373.5 1351.5,383.5 1351.5,393.5C 1339.86,395.832 1328.2,395.999 1316.5,394C 1299.75,388.017 1293.25,376.184 1297,358.5C 1299.02,351.954 1302.85,346.787 1308.5,343C 1313.64,340.226 1318.97,338.393 1324.5,337.5 Z"/></g>
<g><path style="opacity:0.932" fill="#00469d" d="M 1677.5,337.5 C 1685.63,337.566 1693.63,338.566 1701.5,340.5C 1701.76,345.419 1700.09,349.419 1696.5,352.5C 1690.61,350.676 1684.61,350.176 1678.5,351C 1675.3,352.679 1674.97,354.679 1677.5,357C 1683.12,359.154 1688.78,361.154 1694.5,363C 1704.5,368.955 1706.66,377.122 1701,387.5C 1696.72,391.711 1691.56,394.211 1685.5,395C 1676.02,396.06 1666.69,395.393 1657.5,393C 1656.57,392.612 1655.91,391.945 1655.5,391C 1656.24,387.098 1657.58,383.431 1659.5,380C 1662.46,380.419 1665.46,381.086 1668.5,382C 1672.83,382.667 1677.17,382.667 1681.5,382C 1684.55,380.419 1685.22,378.086 1683.5,375C 1675.47,372.993 1667.97,369.827 1661,365.5C 1654.46,354.221 1656.96,345.721 1668.5,340C 1671.63,339.159 1674.63,338.325 1677.5,337.5 Z"/></g>
<g><path style="opacity:0.935" fill="#00469d" d="M 1791.5,337.5 C 1799.03,337.195 1806.36,338.195 1813.5,340.5C 1814.29,344.668 1813.29,348.502 1810.5,352C 1804.93,350.939 1799.26,350.605 1793.5,351C 1785.76,353.245 1782.09,358.412 1782.5,366.5C 1782.17,375.007 1786.17,380.174 1794.5,382C 1799.88,382.054 1805.22,381.72 1810.5,381C 1812.51,383.87 1813.85,387.037 1814.5,390.5C 1814.18,391.647 1813.52,392.481 1812.5,393C 1798.47,396.864 1785.13,395.197 1772.5,388C 1764.32,379.813 1761.49,369.979 1764,358.5C 1768.69,345.579 1777.85,338.579 1791.5,337.5 Z"/></g>
<g><path style="opacity:0.946" fill="#00469d" d="M 1888.5,337.5 C 1901.84,337.333 1915.17,337.5 1928.5,338C 1941.44,340.019 1946.28,347.519 1943,360.5C 1942.53,362.246 1941.86,363.913 1941,365.5C 1937.47,368.506 1933.64,370.84 1929.5,372.5C 1935.36,379.858 1941.03,387.358 1946.5,395C 1940.17,395.667 1933.83,395.667 1927.5,395C 1921.95,388.45 1916.78,381.617 1912,374.5C 1910.21,372.771 1908.04,372.104 1905.5,372.5C 1905.5,380.167 1905.5,387.833 1905.5,395.5C 1899.83,395.5 1894.17,395.5 1888.5,395.5C 1888.5,376.167 1888.5,356.833 1888.5,337.5 Z M 1905.5,348.5 C 1911.93,348.13 1918.26,348.63 1924.5,350C 1928.62,354.073 1928.29,357.74 1923.5,361C 1917.51,361.499 1911.51,361.666 1905.5,361.5C 1905.5,357.167 1905.5,352.833 1905.5,348.5 Z"/></g>
<g><path style="opacity:0.973" fill="#00469d" d="M 1956.5,337.5 C 1961.1,337.2 1965.6,337.533 1970,338.5C 1970.5,357.497 1970.67,376.497 1970.5,395.5C 1965.17,395.5 1959.83,395.5 1954.5,395.5C 1953.87,375.932 1954.53,356.599 1956.5,337.5 Z"/></g>
<g><path style="opacity:0.911" fill="#00469d" d="M 1981.5,337.5 C 2000.17,337.5 2018.83,337.5 2037.5,337.5C 2038.69,341.85 2038.69,346.183 2037.5,350.5C 2030.87,351.497 2024.2,351.83 2017.5,351.5C 2017.83,366.515 2017.5,381.515 2016.5,396.5C 2011.3,397.814 2006.14,397.814 2001,396.5C 2000.5,381.504 2000.33,366.504 2000.5,351.5C 1994.17,351.5 1987.83,351.5 1981.5,351.5C 1980.17,346.833 1980.17,342.167 1981.5,337.5 Z"/></g>
<g><path style="opacity:0.916" fill="#00469d" d="M 2047.5,337.5 C 2052.23,337.223 2056.9,337.557 2061.5,338.5C 2062.5,357.488 2062.83,376.488 2062.5,395.5C 2056.83,395.5 2051.17,395.5 2045.5,395.5C 2044.87,375.932 2045.53,356.599 2047.5,337.5 Z"/></g>
<g><path style="opacity:0.931" fill="#00469d" d="M 2174.5,374.5 C 2174.5,376.5 2174.5,378.5 2174.5,380.5C 2172.38,387.448 2167.72,391.948 2160.5,394C 2149.42,396.189 2138.42,395.856 2127.5,393C 2126.57,392.612 2125.91,391.945 2125.5,391C 2126.51,386.771 2128.18,382.937 2130.5,379.5C 2137.26,382.238 2144.26,383.072 2151.5,382C 2156.83,379.333 2156.83,376.667 2151.5,374C 2142.58,372.813 2135.08,368.98 2129,362.5C 2125.88,347.595 2132.04,339.428 2147.5,338C 2155.63,337.566 2163.63,338.399 2171.5,340.5C 2171.76,345.419 2170.09,349.419 2166.5,352.5C 2160.63,350.6 2154.63,350.1 2148.5,351C 2146.4,352.733 2146.07,354.733 2147.5,357C 2154.72,359.074 2161.72,361.741 2168.5,365C 2171.68,367.551 2173.68,370.718 2174.5,374.5 Z"/></g>
<g><path style="opacity:0.949" fill="#00469d" d="M 655.5,338.5 C 661.5,338.5 667.5,338.5 673.5,338.5C 673.5,345.5 673.5,352.5 673.5,359.5C 678.833,359.5 684.167,359.5 689.5,359.5C 689.5,352.5 689.5,345.5 689.5,338.5C 695.5,338.5 701.5,338.5 707.5,338.5C 707.5,357.167 707.5,375.833 707.5,394.5C 701.494,395.761 695.494,395.761 689.5,394.5C 689.5,387.167 689.5,379.833 689.5,372.5C 684.167,372.5 678.833,372.5 673.5,372.5C 673.5,379.833 673.5,387.167 673.5,394.5C 667.494,395.761 661.494,395.761 655.5,394.5C 655.5,375.833 655.5,357.167 655.5,338.5 Z"/></g>
<g><path style="opacity:0.934" fill="#00469d" d="M 721.5,338.5 C 735.516,338.167 749.516,338.501 763.5,339.5C 764.833,343.167 764.833,346.833 763.5,350.5C 755.862,351.497 748.196,351.831 740.5,351.5C 740.5,354.167 740.5,356.833 740.5,359.5C 746.537,359.171 752.537,359.504 758.5,360.5C 759.803,364.032 759.803,367.532 758.5,371C 752.509,371.499 746.509,371.666 740.5,371.5C 740.5,374.833 740.5,378.167 740.5,381.5C 748.5,381.5 756.5,381.5 764.5,381.5C 764.5,385.833 764.5,390.167 764.5,394.5C 750.167,394.5 735.833,394.5 721.5,394.5C 721.5,375.833 721.5,357.167 721.5,338.5 Z"/></g>
<g><path style="opacity:0.943" fill="#00469d" d="M 776.5,338.5 C 781.875,338.172 787.208,338.505 792.5,339.5C 799.527,348.693 806.36,358.026 813,367.5C 813.5,357.839 813.666,348.172 813.5,338.5C 818.833,338.5 824.167,338.5 829.5,338.5C 829.5,357.167 829.5,375.833 829.5,394.5C 824.463,395.913 819.463,395.747 814.5,394C 807.301,385.101 800.468,375.934 794,366.5C 793.5,375.827 793.334,385.161 793.5,394.5C 787.833,395.833 782.167,395.833 776.5,394.5C 776.5,375.833 776.5,357.167 776.5,338.5 Z"/></g>
<g><path style="opacity:0.94" fill="#00469d" d="M 838.5,338.5 C 845.09,338.189 851.59,338.522 858,339.5C 860.333,349.833 862.667,360.167 865,370.5C 868.622,360.357 871.788,350.024 874.5,339.5C 880.054,338.194 885.554,338.194 891,339.5C 894,349.833 897,360.167 900,370.5C 903.32,360.076 905.82,349.409 907.5,338.5C 913.5,338.5 919.5,338.5 925.5,338.5C 920.167,357.167 914.833,375.833 909.5,394.5C 903.167,395.833 896.833,395.833 890.5,394.5C 887.775,384.489 884.942,374.489 882,364.5C 878.85,374.436 876.017,384.436 873.5,394.5C 867.175,396.158 861.009,395.824 855,393.5C 849.595,375.119 844.095,356.786 838.5,338.5 Z"/></g>
<g><path style="opacity:0.939" fill="#00469d" d="M 951.5,338.5 C 957.833,338.5 964.167,338.5 970.5,338.5C 977.202,356.912 984.202,375.245 991.5,393.5C 985.146,396.104 978.812,396.104 972.5,393.5C 971.5,390.833 970.5,388.167 969.5,385.5C 968.5,385.167 967.5,384.833 966.5,384.5C 961.12,385.313 955.787,385.647 950.5,385.5C 949.5,388.167 948.5,390.833 947.5,393.5C 941.521,396.097 935.521,396.097 929.5,393.5C 936.572,375.028 943.905,356.695 951.5,338.5 Z M 959.5,356.5 C 962.064,361.513 964.064,366.846 965.5,372.5C 961.833,373.833 958.167,373.833 954.5,372.5C 956.575,367.276 958.242,361.942 959.5,356.5 Z"/></g>
<g><path style="opacity:0.943" fill="#00469d" d="M 1000.5,338.5 C 1005.51,338.334 1010.51,338.501 1015.5,339C 1023.05,348.217 1030.22,357.717 1037,367.5C 1037.5,357.839 1037.67,348.172 1037.5,338.5C 1042.83,338.5 1048.17,338.5 1053.5,338.5C 1053.5,357.167 1053.5,375.833 1053.5,394.5C 1048.45,395.994 1043.45,395.827 1038.5,394C 1031.3,385.101 1024.47,375.934 1018,366.5C 1017.5,375.827 1017.33,385.161 1017.5,394.5C 1011.83,395.833 1006.17,395.833 1000.5,394.5C 1000.5,375.833 1000.5,357.167 1000.5,338.5 Z"/></g>
<g><path style="opacity:0.949" fill="#00469d" d="M 1090.5,338.5 C 1096.5,338.5 1102.5,338.5 1108.5,338.5C 1108.5,345.5 1108.5,352.5 1108.5,359.5C 1113.83,359.5 1119.17,359.5 1124.5,359.5C 1124.5,352.5 1124.5,345.5 1124.5,338.5C 1130.5,338.5 1136.5,338.5 1142.5,338.5C 1142.5,357.167 1142.5,375.833 1142.5,394.5C 1136.51,395.761 1130.51,395.761 1124.5,394.5C 1124.5,387.167 1124.5,379.833 1124.5,372.5C 1119.17,372.5 1113.83,372.5 1108.5,372.5C 1108.5,379.833 1108.5,387.167 1108.5,394.5C 1102.51,395.761 1096.51,395.761 1090.5,394.5C 1090.5,375.833 1090.5,357.167 1090.5,338.5 Z"/></g>
<g><path style="opacity:0.943" fill="#00469d" d="M 1230.5,338.5 C 1235.51,338.334 1240.51,338.501 1245.5,339C 1252.21,348.256 1259.04,357.423 1266,366.5C 1266.5,357.173 1266.67,347.839 1266.5,338.5C 1272.17,338.5 1277.83,338.5 1283.5,338.5C 1283.5,357.167 1283.5,375.833 1283.5,394.5C 1278.04,396.078 1272.7,395.744 1267.5,393.5C 1260.86,384.358 1254.03,375.358 1247,366.5C 1246.5,375.827 1246.33,385.161 1246.5,394.5C 1241.18,395.761 1235.84,395.761 1230.5,394.5C 1230.5,375.833 1230.5,357.167 1230.5,338.5 Z"/></g>
<g><path style="opacity:0.934" fill="#00469d" d="M 1359.5,338.5 C 1366.2,338.17 1372.87,338.503 1379.5,339.5C 1382.91,345.997 1386.58,352.33 1390.5,358.5C 1394.04,351.919 1397.71,345.419 1401.5,339C 1407.86,338.169 1414.19,338.336 1420.5,339.5C 1413.92,350.999 1407.08,362.333 1400,373.5C 1399.5,380.492 1399.33,387.492 1399.5,394.5C 1393.49,395.761 1387.49,395.761 1381.5,394.5C 1381.67,387.825 1381.5,381.158 1381,374.5C 1373.56,362.61 1366.39,350.61 1359.5,338.5 Z"/></g>
<g><path style="opacity:0.956" fill="#00469d" d="M 1429.5,338.5 C 1435.5,338.5 1441.5,338.5 1447.5,338.5C 1447.33,351.504 1447.5,364.504 1448,377.5C 1450.9,382.155 1455.06,383.655 1460.5,382C 1462.05,380.786 1463.22,379.286 1464,377.5C 1465.33,364.538 1465.83,351.538 1465.5,338.5C 1471.17,338.5 1476.83,338.5 1482.5,338.5C 1482.95,353.572 1482.45,368.572 1481,383.5C 1478.77,388.731 1474.94,392.231 1469.5,394C 1458.1,396.743 1447.1,395.743 1436.5,391C 1433.89,389.062 1432.06,386.562 1431,383.5C 1429.57,368.558 1429.07,353.558 1429.5,338.5 Z"/></g>
<g><path style="opacity:0.939" fill="#00469d" d="M 1513.5,338.5 C 1520.09,338.189 1526.59,338.522 1533,339.5C 1540.14,357.753 1546.97,376.086 1553.5,394.5C 1547.18,396.158 1541.01,395.824 1535,393.5C 1533.96,390.595 1532.8,387.761 1531.5,385C 1525.17,385.829 1518.84,385.662 1512.5,384.5C 1512,387.829 1511,390.995 1509.5,394C 1503.89,395.774 1498.23,395.941 1492.5,394.5C 1499.1,375.69 1506.1,357.023 1513.5,338.5 Z M 1522.5,356.5 C 1524.74,361.9 1526.41,367.567 1527.5,373.5C 1524.17,373.5 1520.83,373.5 1517.5,373.5C 1518.7,367.681 1520.37,362.015 1522.5,356.5 Z"/></g>
<g><path style="opacity:0.943" fill="#00469d" d="M 1563.5,338.5 C 1568.51,338.334 1573.51,338.501 1578.5,339C 1585.21,348.256 1592.04,357.423 1599,366.5C 1599.5,357.173 1599.67,347.839 1599.5,338.5C 1605.17,338.5 1610.83,338.5 1616.5,338.5C 1616.5,357.167 1616.5,375.833 1616.5,394.5C 1611.04,396.078 1605.7,395.744 1600.5,393.5C 1593.86,384.358 1587.03,375.358 1580,366.5C 1579.5,375.827 1579.33,385.161 1579.5,394.5C 1574.18,395.761 1568.84,395.761 1563.5,394.5C 1563.5,375.833 1563.5,357.167 1563.5,338.5 Z"/></g>
<g><path style="opacity:0.94" fill="#00469d" d="M 1714.5,338.5 C 1728.5,338.5 1742.5,338.5 1756.5,338.5C 1757.73,342.845 1757.73,347.178 1756.5,351.5C 1748.5,351.5 1740.5,351.5 1732.5,351.5C 1732.5,354.167 1732.5,356.833 1732.5,359.5C 1738.87,359.17 1745.2,359.504 1751.5,360.5C 1752.83,363.833 1752.83,367.167 1751.5,370.5C 1745.2,371.496 1738.87,371.83 1732.5,371.5C 1732.5,374.833 1732.5,378.167 1732.5,381.5C 1740.83,381.5 1749.17,381.5 1757.5,381.5C 1757.5,385.833 1757.5,390.167 1757.5,394.5C 1743.17,394.5 1728.83,394.5 1714.5,394.5C 1714.5,375.833 1714.5,357.167 1714.5,338.5 Z"/></g>
<g><path style="opacity:0.945" fill="#00469d" d="M 1823.5,338.5 C 1829.5,338.5 1835.5,338.5 1841.5,338.5C 1841.12,351.546 1841.62,364.546 1843,377.5C 1846.27,382.738 1850.77,383.904 1856.5,381C 1857.7,380.097 1858.53,378.931 1859,377.5C 1859.5,364.504 1859.67,351.504 1859.5,338.5C 1865.5,338.5 1871.5,338.5 1877.5,338.5C 1877.93,353.558 1877.43,368.558 1876,383.5C 1874.17,388 1871,391.167 1866.5,393C 1854.53,396.825 1842.87,396.159 1831.5,391C 1826.7,386.621 1824.2,381.121 1824,374.5C 1823.5,362.505 1823.33,350.505 1823.5,338.5 Z"/></g>
<g><path style="opacity:0.934" fill="#00469d" d="M 2073.5,338.5 C 2087.52,338.167 2101.52,338.501 2115.5,339.5C 2116.83,343.167 2116.83,346.833 2115.5,350.5C 2107.86,351.497 2100.2,351.831 2092.5,351.5C 2092.5,354.167 2092.5,356.833 2092.5,359.5C 2098.54,359.171 2104.54,359.504 2110.5,360.5C 2111.8,364.032 2111.8,367.532 2110.5,371C 2104.51,371.499 2098.51,371.666 2092.5,371.5C 2092.5,374.833 2092.5,378.167 2092.5,381.5C 2100.5,381.5 2108.5,381.5 2116.5,381.5C 2116.5,385.833 2116.5,390.167 2116.5,394.5C 2102.17,394.5 2087.83,394.5 2073.5,394.5C 2073.5,375.833 2073.5,357.167 2073.5,338.5 Z"/></g>
<g><path style="opacity:0.999" fill="#008cd2" d="M 169.5,340.5 C 172.833,340.5 176.167,340.5 179.5,340.5C 149.5,348.833 119.5,357.167 89.5,365.5C 67.8333,365.5 46.1667,365.5 24.5,365.5C 23.6618,365.158 23.3284,364.492 23.5,363.5C 49.8333,356.167 76.1667,348.833 102.5,341.5C 125.006,341.831 147.34,341.497 169.5,340.5 Z"/></g>
<g><path style="opacity:1" fill="#0086cd" d="M 179.5,340.5 C 199.5,340.5 219.5,340.5 239.5,340.5C 209.5,348.833 179.5,357.167 149.5,365.5C 129.833,365.5 110.167,365.5 90.5,365.5C 90.1667,365.5 89.8333,365.5 89.5,365.5C 119.5,357.167 149.5,348.833 179.5,340.5 Z"/></g>
<g><path style="opacity:1" fill="#0080c8" d="M 239.5,340.5 C 259.5,340.5 279.5,340.5 299.5,340.5C 269.5,348.833 239.5,357.167 209.5,365.5C 203.167,365.5 196.833,365.5 190.5,365.5C 176.833,365.5 163.167,365.5 149.5,365.5C 179.5,357.167 209.5,348.833 239.5,340.5 Z"/></g>
<g><path style="opacity:1" fill="#0079c4" d="M 299.5,340.5 C 312.833,340.5 326.167,340.5 339.5,340.5C 339.5,341.167 339.5,341.833 339.5,342.5C 311.697,349.995 284.03,357.661 256.5,365.5C 248.5,365.5 240.5,365.5 232.5,365.5C 224.833,365.5 217.167,365.5 209.5,365.5C 239.5,357.167 269.5,348.833 299.5,340.5 Z"/></g>
<g><path style="opacity:0.988" fill="#0091d6" d="M 14.5,341.5 C 43.8333,341.5 73.1667,341.5 102.5,341.5C 76.1667,348.833 49.8333,356.167 23.5,363.5C 19.4286,356.679 16.4286,349.346 14.5,341.5 Z"/></g>
<g><path style="opacity:1" fill="#0073bf" d="M 339.5,342.5 C 339.536,349.982 338.536,357.315 336.5,364.5C 335.833,364.5 335.5,364.833 335.5,365.5C 316.5,365.5 297.5,365.5 278.5,365.5C 271.167,365.5 263.833,365.5 256.5,365.5C 284.03,357.661 311.697,349.995 339.5,342.5 Z"/></g>
<g><path style="opacity:0.991" fill="#00aaea" d="M 336.5,364.5 C 386.167,364.5 435.833,364.5 485.5,364.5C 448.674,438.954 389.674,485.787 308.5,505C 296.428,507.338 284.428,509.172 272.5,510.5C 260.5,510.5 248.5,510.5 236.5,510.5C 166.896,504.281 108.73,475.281 62,423.5C 58.3258,419.462 55.1591,415.129 52.5,410.5C 55.8333,412.833 59.1667,415.167 62.5,417.5C 66.5346,420.857 70.8679,423.857 75.5,426.5C 80.2985,429.737 85.2985,432.737 90.5,435.5C 92.5,436.5 94.5,437.5 96.5,438.5C 100.495,440.165 104.495,441.832 108.5,443.5C 114.022,445.896 119.688,447.896 125.5,449.5C 130.813,450.828 136.146,452.162 141.5,453.5C 151.712,455.709 162.046,457.042 172.5,457.5C 208.871,458.991 242.538,450.325 273.5,431.5C 283.087,425.573 292.087,418.906 300.5,411.5C 305.167,407.5 309.5,403.167 313.5,398.5C 314.167,398.5 314.5,398.167 314.5,397.5C 323.488,388.206 330.488,377.539 335.5,365.5C 335.5,364.833 335.833,364.5 336.5,364.5 Z"/></g>
<g><path style="opacity:1" fill="#c9def3" d="M 24.5,365.5 C 46.1667,365.5 67.8333,365.5 89.5,365.5C 89.8333,365.5 90.1667,365.5 90.5,365.5C 90.5,365.833 90.5,366.167 90.5,366.5C 84.8333,366.5 79.1667,366.5 73.5,366.5C 57.3246,366.17 41.3246,366.504 25.5,367.5C 24.6618,367.158 24.3284,366.492 24.5,365.5 Z"/></g>
<g><path style="opacity:0.997" fill="#fcfdfe" d="M 73.5,366.5 C 73.5,376.833 73.5,387.167 73.5,397.5C 62.9865,397.172 52.6532,397.506 42.5,398.5C 35.6371,388.933 29.9705,378.599 25.5,367.5C 41.3246,366.504 57.3246,366.17 73.5,366.5 Z"/></g>
<g><path style="opacity:1" fill="#f2f6fb" d="M 73.5,366.5 C 79.1667,366.5 84.8333,366.5 90.5,366.5C 97.8333,366.5 105.167,366.5 112.5,366.5C 112.5,371.833 112.5,377.167 112.5,382.5C 111.5,382.5 110.5,382.5 109.5,382.5C 109.813,385.247 109.48,387.914 108.5,390.5C 107.201,392.758 106.201,395.092 105.5,397.5C 94.8333,397.5 84.1667,397.5 73.5,397.5C 73.5,387.167 73.5,376.833 73.5,366.5 Z"/></g>
<g><path style="opacity:1" fill="#ebf1fa" d="M 112.5,366.5 C 117.833,366.5 123.167,366.5 128.5,366.5C 128.657,367.873 128.49,369.207 128,370.5C 125.777,375.013 123.277,379.346 120.5,383.5C 119.469,388.298 118.135,392.965 116.5,397.5C 112.833,397.5 109.167,397.5 105.5,397.5C 106.201,395.092 107.201,392.758 108.5,390.5C 109.48,387.914 109.813,385.247 109.5,382.5C 110.5,382.5 111.5,382.5 112.5,382.5C 112.5,377.167 112.5,371.833 112.5,366.5 Z"/></g>
<g><path style="opacity:1" fill="#e4ecf8" d="M 128.5,366.5 C 133.833,366.5 139.167,366.5 144.5,366.5C 143.774,376.817 143.44,387.15 143.5,397.5C 134.5,397.5 125.5,397.5 116.5,397.5C 118.135,392.965 119.469,388.298 120.5,383.5C 123.277,379.346 125.777,375.013 128,370.5C 128.49,369.207 128.657,367.873 128.5,366.5 Z"/></g>
<g><path style="opacity:1" fill="#d9e4f4" d="M 144.5,366.5 C 154.5,366.5 164.5,366.5 174.5,366.5C 173.152,367.186 171.985,368.186 171,369.5C 168.846,378.734 167.346,388.068 166.5,397.5C 158.833,397.5 151.167,397.5 143.5,397.5C 143.44,387.15 143.774,376.817 144.5,366.5 Z"/></g>
<g><path style="opacity:1" fill="#cedcf1" d="M 174.5,366.5 C 178.833,366.5 183.167,366.5 187.5,366.5C 187.105,373.494 184.939,379.827 181,385.5C 179.852,389.453 179.018,393.453 178.5,397.5C 174.5,397.5 170.5,397.5 166.5,397.5C 167.346,388.068 168.846,378.734 171,369.5C 171.985,368.186 173.152,367.186 174.5,366.5 Z"/></g>
<g><path style="opacity:1" fill="#c3d5ee" d="M 90.5,366.5 C 90.5,366.167 90.5,365.833 90.5,365.5C 110.167,365.5 129.833,365.5 149.5,365.5C 163.167,365.5 176.833,365.5 190.5,365.5C 193.287,366.477 196.287,366.81 199.5,366.5C 199.338,376.939 198.338,387.273 196.5,397.5C 190.5,397.5 184.5,397.5 178.5,397.5C 179.018,393.453 179.852,389.453 181,385.5C 184.939,379.827 187.105,373.494 187.5,366.5C 183.167,366.5 178.833,366.5 174.5,366.5C 164.5,366.5 154.5,366.5 144.5,366.5C 139.167,366.5 133.833,366.5 128.5,366.5C 123.167,366.5 117.833,366.5 112.5,366.5C 105.167,366.5 97.8333,366.5 90.5,366.5 Z"/></g>
<g><path style="opacity:1" fill="#b8cdea" d="M 199.5,366.5 C 208.5,366.5 217.5,366.5 226.5,366.5C 224.796,376.747 223.796,387.08 223.5,397.5C 214.5,397.5 205.5,397.5 196.5,397.5C 198.338,387.273 199.338,376.939 199.5,366.5 Z"/></g>
<g><path style="opacity:1" fill="#a6c0e4" d="M 190.5,365.5 C 196.833,365.5 203.167,365.5 209.5,365.5C 217.167,365.5 224.833,365.5 232.5,365.5C 238.31,366.49 244.31,366.823 250.5,366.5C 249.957,370.015 248.957,373.348 247.5,376.5C 246.5,376.5 245.5,376.5 244.5,376.5C 242.899,383.903 240.232,390.903 236.5,397.5C 235.167,397.5 233.833,397.5 232.5,397.5C 229.5,397.5 226.5,397.5 223.5,397.5C 223.796,387.08 224.796,376.747 226.5,366.5C 217.5,366.5 208.5,366.5 199.5,366.5C 196.287,366.81 193.287,366.477 190.5,365.5 Z"/></g>
<g><path style="opacity:1" fill="#9ab7df" d="M 250.5,366.5 C 254.167,366.5 257.833,366.5 261.5,366.5C 259.608,369.276 257.941,372.276 256.5,375.5C 255.172,382.773 254.505,390.107 254.5,397.5C 248.5,397.5 242.5,397.5 236.5,397.5C 240.232,390.903 242.899,383.903 244.5,376.5C 245.5,376.5 246.5,376.5 247.5,376.5C 248.957,373.348 249.957,370.015 250.5,366.5 Z"/></g>
<g><path style="opacity:1" fill="#598dca" d="M 278.5,365.5 C 297.5,365.5 316.5,365.5 335.5,365.5C 330.488,377.539 323.488,388.206 314.5,397.5C 310.167,397.5 305.833,397.5 301.5,397.5C 302.744,394.74 304.244,392.073 306,389.5C 306.333,385.833 306.667,382.167 307,378.5C 307.5,378 308,377.5 308.5,377C 306.638,373.851 305.971,370.351 306.5,366.5C 304.833,366.5 303.167,366.5 301.5,366.5C 293.648,366.825 285.982,366.492 278.5,365.5 Z"/></g>
<g><path style="opacity:1" fill="#6f97cf" d="M 301.5,366.5 C 303.167,366.5 304.833,366.5 306.5,366.5C 305.971,370.351 306.638,373.851 308.5,377C 308,377.5 307.5,378 307,378.5C 306.667,382.167 306.333,385.833 306,389.5C 304.244,392.073 302.744,394.74 301.5,397.5C 295.5,397.5 289.5,397.5 283.5,397.5C 288.546,389.748 292.879,381.415 296.5,372.5C 299.316,371.36 300.982,369.36 301.5,366.5 Z"/></g>
<g><path style="opacity:1" fill="#8dadda" d="M 261.5,366.5 C 266.167,366.5 270.833,366.5 275.5,366.5C 274.411,370.011 274.411,373.511 275.5,377C 271.364,383.208 269.03,390.042 268.5,397.5C 263.833,397.5 259.167,397.5 254.5,397.5C 254.505,390.107 255.172,382.773 256.5,375.5C 257.941,372.276 259.608,369.276 261.5,366.5 Z"/></g>
<g><path style="opacity:1" fill="#7ba1d5" d="M 232.5,365.5 C 240.5,365.5 248.5,365.5 256.5,365.5C 263.833,365.5 271.167,365.5 278.5,365.5C 285.982,366.492 293.648,366.825 301.5,366.5C 300.982,369.36 299.316,371.36 296.5,372.5C 292.879,381.415 288.546,389.748 283.5,397.5C 278.5,397.5 273.5,397.5 268.5,397.5C 269.03,390.042 271.364,383.208 275.5,377C 274.411,373.511 274.411,370.011 275.5,366.5C 270.833,366.5 266.167,366.5 261.5,366.5C 257.833,366.5 254.167,366.5 250.5,366.5C 244.31,366.823 238.31,366.49 232.5,365.5 Z"/></g>
<g><path style="opacity:0.998" fill="#0d7cc5" d="M 42.5,398.5 C 52.6532,397.506 62.9865,397.172 73.5,397.5C 84.1667,397.5 94.8333,397.5 105.5,397.5C 109.167,397.5 112.833,397.5 116.5,397.5C 125.5,397.5 134.5,397.5 143.5,397.5C 151.167,397.5 158.833,397.5 166.5,397.5C 170.5,397.5 174.5,397.5 178.5,397.5C 184.5,397.5 190.5,397.5 196.5,397.5C 205.5,397.5 214.5,397.5 223.5,397.5C 226.5,397.5 229.5,397.5 232.5,397.5C 229.375,398.479 226.042,398.813 222.5,398.5C 206.833,398.5 191.167,398.5 175.5,398.5C 160.163,398.333 144.83,398.5 129.5,399C 106.917,404.726 84.5836,410.893 62.5,417.5C 59.1667,415.167 55.8333,412.833 52.5,410.5C 48.7899,406.792 45.4566,402.792 42.5,398.5 Z"/></g>
<g><path style="opacity:1" fill="#0073bf" d="M 175.5,398.5 C 142.167,407.833 108.833,417.167 75.5,426.5C 70.8679,423.857 66.5346,420.857 62.5,417.5C 84.5836,410.893 106.917,404.726 129.5,399C 144.83,398.5 160.163,398.333 175.5,398.5 Z"/></g>
<g><path style="opacity:1" fill="#006dba" d="M 175.5,398.5 C 191.167,398.5 206.833,398.5 222.5,398.5C 179.082,410.774 135.415,422.607 91.5,434C 90.944,434.383 90.6107,434.883 90.5,435.5C 85.2985,432.737 80.2985,429.737 75.5,426.5C 108.833,417.167 142.167,407.833 175.5,398.5 Z"/></g>
<g><path style="opacity:1" fill="#0169b6" d="M 232.5,397.5 C 233.833,397.5 235.167,397.5 236.5,397.5C 242.5,397.5 248.5,397.5 254.5,397.5C 259.167,397.5 263.833,397.5 268.5,397.5C 273.5,397.5 278.5,397.5 283.5,397.5C 289.5,397.5 295.5,397.5 301.5,397.5C 305.833,397.5 310.167,397.5 314.5,397.5C 314.5,398.167 314.167,398.5 313.5,398.5C 312.167,398.5 310.833,398.5 309.5,398.5C 296.167,398.5 282.833,398.5 269.5,398.5C 260.494,398.334 251.494,398.5 242.5,399C 193.629,411.882 144.962,425.049 96.5,438.5C 94.5,437.5 92.5,436.5 90.5,435.5C 90.6107,434.883 90.944,434.383 91.5,434C 135.415,422.607 179.082,410.774 222.5,398.5C 226.042,398.813 229.375,398.479 232.5,397.5 Z"/></g>
<g><path style="opacity:1" fill="#0065b3" d="M 269.5,398.5 C 216.661,412.962 163.661,427.296 110.5,441.5C 109.287,441.747 108.62,442.414 108.5,443.5C 104.495,441.832 100.495,440.165 96.5,438.5C 144.962,425.049 193.629,411.882 242.5,399C 251.494,398.5 260.494,398.334 269.5,398.5 Z"/></g>
<g><path style="opacity:1" fill="#0060af" d="M 269.5,398.5 C 282.833,398.5 296.167,398.5 309.5,398.5C 249.704,414.951 189.704,431.118 129.5,447C 127.68,447.2 126.347,448.034 125.5,449.5C 119.688,447.896 114.022,445.896 108.5,443.5C 108.62,442.414 109.287,441.747 110.5,441.5C 163.661,427.296 216.661,412.962 269.5,398.5 Z"/></g>
<g><path style="opacity:1" fill="#025aaa" d="M 309.5,398.5 C 310.833,398.5 312.167,398.5 313.5,398.5C 309.5,403.167 305.167,407.5 300.5,411.5C 300.265,410.903 299.765,410.57 299,410.5C 246.302,424.573 193.802,438.906 141.5,453.5C 136.146,452.162 130.813,450.828 125.5,449.5C 126.347,448.034 127.68,447.2 129.5,447C 189.704,431.118 249.704,414.951 309.5,398.5 Z"/></g>
<g><path style="opacity:1" fill="#0454a6" d="M 300.5,411.5 C 292.087,418.906 283.087,425.573 273.5,431.5C 273.083,430.876 272.416,430.543 271.5,430.5C 238.251,439.059 205.251,448.059 172.5,457.5C 162.046,457.042 151.712,455.709 141.5,453.5C 193.802,438.906 246.302,424.573 299,410.5C 299.765,410.57 300.265,410.903 300.5,411.5 Z"/></g>
<g><path style="opacity:1" fill="#024da1" d="M 273.5,431.5 C 242.538,450.325 208.871,458.991 172.5,457.5C 205.251,448.059 238.251,439.059 271.5,430.5C 272.416,430.543 273.083,430.876 273.5,431.5 Z"/></g>
</svg>
