<svg xmlns="http://www.w3.org/2000/svg" xmlns:xlink="http://www.w3.org/1999/xlink" viewBox="0 0 20 20" class="design-iconfont">
  <defs>
    <path d="M9.36570099,0.392179875 C8.6968366,-0.130726625 7.79960218,-0.130726625 7.13073778,0.392179875 L1.22288166,4.86717987 C0.701961453,5.25357334 0.372878338,5.87218105 0.337870798,6.53384653 L0.00184837332,13.9171799 C-0.0461795928,15.0677731 0.847626155,16.0005132 1.99821939,16.0005132 L14.4982194,16.0005132 C15.6488126,16.0005132 16.5426184,15.0677731 16.4945904,13.9171799 L16.1590897,6.54634653 C16.1276531,5.88026112 15.7979136,5.25616915 15.2735571,4.86717987 L9.36570099,0.392179875 Z M11.5057911,11.4630132 C11.5134756,11.9232505 11.1535316,12.2963465 10.7018337,12.2963465 C10.2501358,12.2963465 9.8808475,11.9232505 9.87700526,11.4630132 L9.8561343,8.9630132 C9.84844983,8.04253865 9.12856178,7.29634653 8.24821938,7.29634653 C7.36787699,7.29634653 6.64798894,8.04253865 6.64030446,8.9630132 L6.6194335,11.4630132 C6.61559127,11.9232505 6.24630301,12.2963465 5.79460509,12.2963465 C5.34290717,12.2963465 4.98296315,11.9232505 4.99064763,11.4630132 L5.03238954,8.9630132 C5.06312744,7.12206404 6.5029035,5.62967987 8.24821938,5.62967987 C9.99353527,5.62967987 11.4333113,7.12206404 11.4640492,8.9630132 L11.5057911,11.4630132 Z" id="vetu4g2pb__07epsiv5sa"/>
  </defs>
  <use fill="#1D63FF" fill-rule="nonzero" xlink:href="#vetu4g2pb__07epsiv5sa" transform="translate(1.751781 .999487)"/>
</svg>
