<svg xmlns="http://www.w3.org/2000/svg" viewBox="0 0 22.1650399 20.5771169" class="design-iconfont">
  <defs>
    <path id="10i1b1fbd__f6m15mb90a" d="M1.08251995 0H21.08251995V20H1.08251995z"/>
  </defs>
  <g fill="none" fill-rule="evenodd">
    <path d="M11.4126748,5.20072296 C14.2630677,5.20072296 16.6756343,7.10589688 17.4848256,9.73165902 C16.3763789,8.77653327 14.941886,8.20090864 13.3751093,8.20090864 C9.86153132,8.20090864 7.01321356,11.0957474 7.01321356,14.666712 C7.01321356,15.3410967 7.11479931,15.9913673 7.30326694,16.6025797 C5.92564768,15.417007 5.05077905,13.6456036 5.05077905,11.6665263 C5.05077905,8.09556174 7.8990968,5.20072296 11.4126748,5.20072296 Z" fill="#55698F" transform="scale(1 -1) rotate(30 54.44214171 -.6666665)"/>
    <path d="M13.8997832,4.86908888 C17.0965295,4.86908888 19.7425839,7.26539074 20.1937984,10.386993 C19.1876574,9.70918176 17.9807554,9.31432871 16.6831126,9.31432871 C13.1695346,9.31432871 10.3212169,12.2091675 10.3212169,15.7801321 C10.3212169,16.1021386 10.3443773,16.4186473 10.3890975,16.7280314 C8.67081819,15.5702156 7.53788746,13.5870199 7.53788746,11.3348923 C7.53788746,7.76392766 10.3862052,4.86908888 13.8997832,4.86908888 Z" fill="#A3ADC4" transform="rotate(120 13.48092392 11.4654275)"/>
    <path d="M8.33317417,4.86908888 C11.5299205,4.86908888 14.1759748,7.26539074 14.6271893,10.386993 C13.6210483,9.70918176 12.4141464,9.31432871 11.1165036,9.31432871 C7.60292556,9.31432871 4.7546078,12.2091675 4.7546078,15.7801321 C4.7546078,16.1021386 4.77776823,16.4186473 4.8224884,16.7280314 C3.10420913,15.5702156 1.9712784,13.5870199 1.9712784,11.3348923 C1.9712784,7.76392766 4.81959616,4.86908888 8.33317417,4.86908888 Z" fill="#D2DAE8" transform="scale(1 -1) rotate(-60 -11.55948796 -.6666665)"/>
    <path d="M11.0903713,0 C14.2871176,0 16.933172,2.39630186 17.3843865,5.5179041 C16.3782455,4.84009288 15.1713435,4.44523983 13.8737007,4.44523983 C10.3601227,4.44523983 7.51180495,7.34007861 7.51180495,10.9110432 C7.51180495,11.2330497 7.53496537,11.5495584 7.57968555,11.8589425 C5.86140628,10.7011267 4.72847555,8.71793105 4.72847555,6.46580339 C4.72847555,2.89483878 7.5767933,0 11.0903713,0 Z" fill="#55698F" transform="translate(0 1.333333)"/>
  </g>
</svg>
