<svg xmlns="http://www.w3.org/2000/svg" viewBox="0 0 20 20" class="design-iconfont">
  <g fill="none" fill-rule="evenodd">
    <!-- 小红书品牌色书籍 -->
    <path d="M4,3 L16,3 C16.552,3 17,3.448 17,4 L17,16 C17,16.552 16.552,17 16,17 L4,17 C3.448,17 3,16.552 3,16 L3,4 C3,3.448 3.448,3 4,3 Z" fill="#D2DAE8" opacity="0.5"/>
    <path d="M5,4 L15,4 L15,15 L5,15 Z" fill="#A3ADC4" opacity="0.7"/>
    <!-- 书脊 -->
    <rect x="4" y="3" width="1" height="14" fill="#55698F"/>
    <!-- 小红书标识 - 红色点缀 -->
    <circle cx="13" cy="12" r="2.5" fill="#FF2442" opacity="0.9"/>
    <!-- 星星装饰 -->
    <path d="M13,10.5 L13.4,11.5 L14.5,11.5 L13.6,12.1 L13.9,13.2 L13,12.6 L12.1,13.2 L12.4,12.1 L11.5,11.5 L12.6,11.5 Z" fill="#FFF"/>
  </g>
</svg>
