<svg xmlns="http://www.w3.org/2000/svg" viewBox="0 0 20 20" class="design-iconfont">
  <g fill="none" fill-rule="evenodd">
    <!-- 数据库圆柱体 -->
    <ellipse cx="10" cy="4" rx="6" ry="2" fill="#A3ADC4"/>
    <path d="M4 4 L4 8 C4 9.1 7.58 10 12 10 C16.42 10 20 9.1 20 8 L20 4" fill="#808FB1"/>
    <path d="M4 8 L4 12 C4 13.1 7.58 14 12 14 C16.42 14 20 13.1 20 12 L20 8" fill="#55698F"/>

    <!-- 同步箭头 - 顺时针循环 -->
    <!-- 上方箭头 -->
    <path d="M12 2 L14 4 L16 2" stroke="#165DFF" stroke-width="1.5" stroke-linecap="round" stroke-linejoin="round" fill="none"/>
    <path d="M14 4 L14 1" stroke="#165DFF" stroke-width="1.5" stroke-linecap="round"/>

    <!-- 右侧箭头 -->
    <path d="M17 7 L19 9 L17 11" stroke="#165DFF" stroke-width="1.5" stroke-linecap="round" stroke-linejoin="round" fill="none"/>
    <path d="M19 9 L16 9" stroke="#165DFF" stroke-width="1.5" stroke-linecap="round"/>

    <!-- 下方箭头 -->
    <path d="M8 17 L6 15 L4 17" stroke="#165DFF" stroke-width="1.5" stroke-linecap="round" stroke-linejoin="round" fill="none"/>
    <path d="M6 15 L6 18" stroke="#165DFF" stroke-width="1.5" stroke-linecap="round"/>

    <!-- 左侧箭头 -->
    <path d="M3 13 L1 11 L3 9" stroke="#165DFF" stroke-width="1.5" stroke-linecap="round" stroke-linejoin="round" fill="none"/>
    <path d="M1 11 L4 11" stroke="#165DFF" stroke-width="1.5" stroke-linecap="round"/>
  </g>
</svg>
