<svg xmlns="http://www.w3.org/2000/svg" viewBox="0 0 20 20" class="design-iconfont">
  <g fill="none" fill-rule="evenodd">
    <path fill="#A3ADC4" d="M7 0A7 1.78571429 0 1 0 7 3.57142858A7 1.78571429 0 1 0 7 0Z" transform="translate(3 1.666667)"/>
    <path fill="#FFF" d="M7 0.78571429A2.33333333 1 0 1 0 7 2.78571429A2.33333333 1 0 1 0 7 0.78571429Z" transform="translate(3 1.666667)"/>
    <path d="M14,11.9047619 L14,15.0793651 L13.9573873,15.0791118 C13.5709375,15.9720811 10.6034379,16.6666667 7,16.6666667 C3.39656208,16.6666667 0.429062451,15.9720811 0.0426127196,15.0791118 L0,15.0793651 L0,11.9047619 L0.0427445093,11.904813 C0.429736612,12.7976357 3.39697139,13.4920635 7,13.4920635 C10.6030286,13.4920635 13.5702634,12.7976357 13.9572555,11.904813 L14,11.9047619 Z" fill="#55698F" transform="translate(3 1.666667)"/>
    <path d="M14,7.53968254 L14,10.7142857 L13.9573873,10.7140325 C13.5709375,11.6070017 10.6034379,12.3015873 7,12.3015873 C3.39656208,12.3015873 0.429062451,11.6070017 0.0426127196,10.7140325 L0,10.7142857 L0,7.53968254 L0.0427445093,7.53973359 C0.429736612,8.43255633 3.39697139,9.12698413 7,9.12698413 C10.6030286,9.12698413 13.5702634,8.43255633 13.9572555,7.53973359 L14,7.53968254 Z" fill="#808FB1" transform="translate(3 1.666667)"/>
    <path d="M14,3.57142857 L14,7.53968254 L13.9571034,7.54008409 C13.5694868,8.43273806 10.6025571,9.12698413 7,9.12698413 C3.39744289,9.12698413 0.43051322,8.43273806 0.0428965695,7.54008409 L0,7.53968254 L0,3.57142857 L0.39871389,3.5717176 C1.35998534,4.26513351 3.95257947,4.76190476 7,4.76190476 C10.0474205,4.76190476 12.6400147,4.26513351 13.6012861,3.5717176 L14,3.57142857 Z" fill="#D2DAE8" transform="translate(3 1.666667)"/>
  </g>
</svg>
