<svg xmlns="http://www.w3.org/2000/svg" viewBox="0 0 20 20" class="design-iconfont">
  <g fill="none" fill-rule="evenodd">
    <!-- 后面两层文档 -->
    <path d="M5,4 L14,4 L14,15 L5,15 Z" fill="#D2DAE8" opacity="0.4" transform="translate(1 1)"/>
    <path d="M5,4 L14,4 L14,15 L5,15 Z" fill="#D2DAE8" opacity="0.6" transform="translate(2 0)"/>
    <!-- 前面主文档 -->
    <path d="M5,4 L14,4 L14,15 L5,15 Z" fill="#A3ADC4" opacity="0.8"/>
    <path d="M5,4 L14,4 L14,15 L5,15 Z" stroke="#55698F" stroke-width="1" fill="none" stroke-linejoin="round"/>
    <!-- 文档内容线条 -->
    <line x1="7" y1="6" x2="12" y2="6" stroke="#55698F" stroke-width="1" stroke-linecap="round" opacity="0.6"/>
    <line x1="7" y1="8" x2="12" y2="8" stroke="#55698F" stroke-width="1" stroke-linecap="round" opacity="0.6"/>
    <line x1="7" y1="10" x2="10" y2="10" stroke="#55698F" stroke-width="1" stroke-linecap="round" opacity="0.6"/>
    <!-- 列表项圆点 -->
    <circle cx="6" cy="6" r="0.5" fill="#55698F" opacity="0.6"/>
    <circle cx="6" cy="8" r="0.5" fill="#55698F" opacity="0.6"/>
    <circle cx="6" cy="10" r="0.5" fill="#55698F" opacity="0.6"/>
    <!-- 右侧书签 -->
    <rect x="14" y="4" width="2" height="6" fill="#55698F" opacity="0.7"/>
    <path d="M14,4 L16,4 L16,6 L15,5 L14,6 Z" fill="#55698F" opacity="0.7"/>
  </g>
</svg>
