<svg xmlns="http://www.w3.org/2000/svg" viewBox="0 0 48 48" class="design-iconfont">
  <rect x="8" y="8" width="32" height="32" rx="6" fill="#f5222d" fill-opacity="0.1"/>

  <!-- 网格背景 -->
  <g fill="none" stroke="#f5222d" stroke-width="1" stroke-opacity="0.3">
    <line x1="12" y1="16" x2="36" y2="16"/>
    <line x1="12" y1="24" x2="36" y2="24"/>
    <line x1="12" y1="32" x2="36" y2="32"/>
    <line x1="20" y1="12" x2="20" y2="36"/>
    <line x1="28" y1="12" x2="28" y2="36"/>
    <line x1="36" y1="12" x2="36" y2="36"/>
  </g>

  <!-- 散点数据点 -->
  <circle cx="16" cy="32" r="3" fill="#f5222d" fill-opacity="0.9"/>
  <circle cx="24" cy="20" r="4" fill="#f5222d" fill-opacity="0.9"/>
  <circle cx="32" cy="28" r="3" fill="#f5222d" fill-opacity="0.9"/>
  <circle cx="20" cy="36" r="2" fill="#f5222d" fill-opacity="0.9"/>
  <circle cx="36" cy="16" r="3" fill="#f5222d" fill-opacity="0.9"/>
  <circle cx="28" cy="24" r="2" fill="#f5222d" fill-opacity="0.9"/>

  <!-- 坐标轴 -->
  <g fill="none" stroke="#f5222d" stroke-width="2">
    <!-- X轴 -->
    <line x1="10" y1="38" x2="38" y2="38"/>
    <!-- Y轴 -->
    <line x1="10" y1="10" x2="10" y2="38"/>
  </g>

  <!-- 装饰元素 -->
  <rect x="22" y="14" width="8" height="2" rx="1" fill="#f5222d" fill-opacity="0.5"/>
  <rect x="26" y="26" width="10" height="2" rx="1" fill="#f5222d" fill-opacity="0.5"/>
</svg>