<svg xmlns="http://www.w3.org/2000/svg" viewBox="0 0 20 20" class="design-iconfont">
  <g fill="none" fill-rule="evenodd">
    <path fill="#96A1BB" d="M8.64262544 0L17.3333333 4.99664405 8.64262544 10 -2.45376444e-13 4.99664405z" transform="translate(1.666667 .333333)"/>
    <path fill="#D2DAE8" d="M0 4.66666667L0 14.1606739 8.66666667 19.3333333 8.64262544 9.58455816z" transform="translate(1.666667 .333333)"/>
    <path fill="#55698F" d="M8.66666667 9.58455816L17.3333333 4.66666667 17.3333333 14.1879825 8.66666667 19.3333333z" transform="translate(1.666667 .333333)"/>
    <g>
      <path fill="#D2DAE8" d="M5.24106894 0L10.5112961 2.78768369 5.24106894 5.57911203 -1.48801411e-13 2.78768369z" transform="translate(5.077685 4.112231)"/>
      <path fill="#FFF" d="M0 2.78955601L0 8.17480397 5.25564804 11.108871 5.24106894 5.57911203z" transform="translate(5.077685 4.112231)"/>
      <path fill="#6378A0" d="M5.25564804 5.57911203L10.5112961 2.78955601 10.5112961 8.19029409 5.25564804 11.108871z" transform="translate(5.077685 4.112231)"/>
    </g>
  </g>
</svg>
